<?xml version="1.0" encoding="utf-8"?>
<!-- Generator: Adobe Illustrator 21.0.0, SVG Export Plug-In . SVG Version: 6.00 Build 0)  -->
<svg version="1.1" id="Layer_1" xmlns="http://www.w3.org/2000/svg" xmlns:xlink="http://www.w3.org/1999/xlink" x="0px" y="0px"
	 viewBox="0 0 669 689.1" style="enable-background:new 0 0 669 689.1;" xml:space="preserve">
<style type="text/css">
	.st0{fill-rule:evenodd;clip-rule:evenodd;}
</style>
<g>
	<path class="st0" d="M644.8,24.1C629.9,9.2,609.4,0,586.8,0H82.2C59.6,0,39,9.2,24.1,24.1C9.2,39,0,59.6,0,82.2v504.6
		c0,22.6,9.2,43.2,24.1,58.1C39,659.7,59.6,669,82.2,669h345.6c-1.4-2.8-2.8-5.6-4.1-8.5H82.2c-20.3,0-38.7-8.3-52-21.7
		c-13.4-13.4-21.7-31.8-21.7-52V82.2c0-20.3,8.3-38.7,21.7-52c13.4-13.4,31.8-21.7,52-21.7h504.6c20.3,0,38.7,8.3,52,21.7
		c13.4,13.4,21.7,31.8,21.7,52v341c2.9,1.3,5.7,2.6,8.5,4.1V82.2C669,59.6,659.7,39,644.8,24.1z"/>
	<path class="st0" d="M653.4,420.3v-338c0-18.3-7.5-35-19.6-47c-12.1-12.1-28.7-19.6-47-19.6H82.2c-18.3,0-35,7.5-47,19.6
		c-12.1,12.1-19.6,28.7-19.6,47v504.6c0,18.3,7.5,35,19.6,47c12.1,12.1,28.7,19.6,47,19.6h338.5c-0.7-1.9-1.5-3.8-2.1-5.7H82.2
		c-16.8,0-32-6.9-43-17.9c-11-11-17.9-26.3-17.9-43V82.2c0-16.8,6.9-32,17.9-43c11-11,26.3-17.9,43-17.9h504.6
		c16.8,0,32,6.9,43,17.9c11,11,17.9,26.3,17.9,43v335.9C649.6,418.8,651.5,419.5,653.4,420.3z"/>
	<path class="st0" d="M335.7,233.2c-55.9,0-101.3,45.4-101.3,101.3c0,55.9,45.4,101.3,101.3,101.3c55.9,0,101.3-45.4,101.3-101.3
		C437,278.6,391.6,233.2,335.7,233.2z M335.7,434.8c-55.3,0-100.3-45-100.3-100.3s45-100.3,100.3-100.3S436,279.2,436,334.5
		S391,434.8,335.7,434.8z"/>
	<path class="st0" d="M456.6,334.5c0-66.7-54.2-120.9-120.9-120.9c-66.6,0-120.9,54.2-120.9,120.9s54.2,120.9,120.9,120.9
		C402.4,455.4,456.6,401.1,456.6,334.5z M335.7,451.4c-64.4,0-116.9-52.4-116.9-116.9c0-64.4,52.4-116.9,116.9-116.9
		S452.6,270,452.6,334.5C452.6,398.9,400.2,451.4,335.7,451.4z"/>
	<path class="st0" d="M335.7,229.4c-58,0-105.1,47.2-105.1,105.1s47.2,105.1,105.1,105.1c58,0,105.1-47.2,105.1-105.1
		S393.7,229.4,335.7,229.4z M335.7,438.6c-57.4,0-104.1-46.7-104.1-104.1s46.7-104.1,104.1-104.1c57.4,0,104.1,46.7,104.1,104.1
		S393.1,438.6,335.7,438.6z"/>
	<path class="st0" d="M335.7,235.8c-54.4,0-98.7,44.3-98.7,98.7s44.3,98.7,98.7,98.7s98.7-44.3,98.7-98.7S390.2,235.8,335.7,235.8z
		 M335.7,429.2c-52.2,0-94.7-42.5-94.7-94.7c0-52.2,42.5-94.7,94.7-94.7c52.2,0,94.7,42.5,94.7,94.7
		C430.5,386.7,388,429.2,335.7,429.2z"/>
	<path class="st0" d="M119,49.6c-0.8-1.4-2.2-2.1-4.1-2.2c0,0,0,0-0.1,0c-2.3,0-3.2,1.1-3.7,1.7c0,0.1-0.1,0.1-0.1,0.2l0-9.2l-3.5,0
		l0,20.9v0.1l3.5,0l0-0.1c0.1-0.6,0.1-1.6,0-2.4c0-0.3,0-0.7,0-0.9c0-0.4,0-0.9,0-1.3c-0.1-2.9-0.1-5.6,2.7-5.8
		c0.7-0.1,1.3,0.1,1.7,0.5c0.8,0.7,0.9,2.2,0.9,3.4c0,0.8,0,1.6,0,2.4c0,1.4,0,2.8,0,4.2l0,0.1l0.1,0c0.4,0,0.8,0,1.3,0
		c0.2,0,0.3,0,0.5,0l1.7-0.1l0-0.1c0.1-0.3,0.1-2.8,0-5.1c0-0.4,0-0.8,0-1c0-0.2,0-0.5,0-0.7C119.8,52.6,119.8,51,119,49.6z"/>
	<path class="st0" d="M153.9,53.7L153.9,53.7c-0.1-0.2-0.1-0.4-0.2-0.7c-0.1-0.5-0.2-1.1-0.5-1.9c-1-2.5-3.3-3.9-6.2-3.7
		c-2.6,0.1-5.7,1.8-6.6,5.1c-0.7,2.5-0.1,5,1.7,6.8c1.4,1.4,3.3,2.2,5.3,2.2c0.6,0,1.3-0.1,2-0.2c1.4-0.3,3.3-1.5,3.8-2.5l0-0.1
		l0-0.1c-0.1-0.2-0.3-0.3-0.4-0.4c0,0-0.1-0.1-0.2-0.1l-1.8-1.3l-0.1,0c-0.2,0.1-0.4,0.3-0.6,0.5c-0.1,0.1-0.2,0.2-0.3,0.3
		c-1.2,1-2.9,1.3-4.3,0.7c-1.1-0.5-1.8-1.5-1.8-2.6h10V53.7z M143.9,53.1c0.1-1.7,1.4-2.9,3.2-2.9c0,0,0,0,0.1,0
		c1.9,0,3.1,1,3.2,2.9L143.9,53.1z"/>
	<path class="st0" d="M137.4,47.8C137.4,47.9,137.4,47.9,137.4,47.8l-0.1,0.2c0,0.1-0.1,0.1-0.1,0.2c-0.3,0.7-0.9,2.2-1.5,3.9
		c-0.7,1.9-1.6,4.2-1.9,4.9l-3.5-9l0-0.1l-3.8,0l0,0.1c0.1,0.4,0.5,1.5,0.9,2.4c0.2,0.4,0.3,0.7,0.4,1c0.4,1.1,3.9,9.6,4.1,9.9l0,0
		l3.5,0l0,0c0.3-0.3,2.6-6.3,2.7-6.6c0.1-0.2,0.3-0.7,0.6-1.4c1-2.5,2-4.9,2-5.3l0-0.1L137.4,47.8L137.4,47.8z"/>
	<polygon class="st0" points="125.4,61.2 125.4,47.8 121.8,47.8 121.9,61.1 121.9,61.2 	"/>
	<path class="st0" d="M72,57.9L72,57.9l0,1l0,0c0.1,0.2,0.2,0.3,0.3,0.5c0.3,0.5,0.7,1.2,1.8,2.1c0.8,0.7,1.8,1.4,2.8,1.9
		c2.8,1.5,5.1,1.9,6.4,2.1c0.5,0.1,0.8,0.1,0.9,0.2l3.8,0l0,0c0.1,0,0.6-0.1,1-0.1c0.2,0,0.5-0.1,0.6-0.1c0.5-0.1,1-0.2,1.6-0.3
		c0.9-0.2,2-0.6,2.9-1c2.1-0.9,5.7-3.1,6.4-5.3c0.2-0.5,0.1-1.3-0.2-1.6c-0.2-0.2-0.3-0.2-0.5-0.2c-0.3,0-0.6,0.4-0.8,0.6
		c0,0-0.1,0.1-0.1,0.1c-5.2,6.2-16.8,6.4-22.7,2.3c-1.3-0.9-2-1.7-2.5-2.2c-0.4-0.5-0.7-0.8-1-0.7C72.5,57.2,72.3,57.5,72,57.9z"/>
	<path class="st0" d="M73.7,52.9c-0.3,0.3-0.4,0.9-0.3,1.4c0.4,1.9,2.9,3.6,5,4.6c2.3,1.1,5,1.6,7.8,1.6c2.8,0,5.6-0.6,8-1.7
		c3.6-1.7,4.8-3.7,4.8-5c0-0.5-0.2-0.8-0.5-1c-0.2-0.1-0.5,0-0.8,0.2c-0.2,0.2-0.3,0.3-0.5,0.5c-0.2,0.2-0.4,0.5-0.7,0.7
		c-4.9,4-12.5,4.7-18.2,1.7c-1.1-0.6-2.1-1.2-2.8-1.9c0,0-0.1-0.1-0.2-0.2c-0.7-0.7-1-1-1.1-1C74.1,52.6,73.9,52.7,73.7,52.9z"/>
	<path class="st0" d="M75.2,48.3c-0.3,0.1-0.4,0.5-0.4,0.9c0,0.5,0.4,2.5,4.4,4.3c2.2,1,4.7,1.5,7.1,1.5c2.3,0,4.7-0.5,6.8-1.4
		c1.7-0.8,4.1-2,4.6-3.9c0.1-0.4,0.1-1-0.2-1.3c-0.1-0.1-0.3-0.2-0.6-0.1c-0.2,0-0.5,0.3-0.9,0.7c-0.1,0.1-0.2,0.2-0.3,0.3
		c-0.7,0.6-1.6,1.2-2.5,1.6c-5.1,2.6-11.7,2-16.1-1.4l-1.1-1C75.7,48.2,75.5,48.2,75.2,48.3z"/>
	<path class="st0" d="M76.6,43.7c-0.2,0-0.4,0.1-0.5,0.3c-0.2,0.3-0.2,0.7-0.1,1.1c0.4,1.5,2.7,2.9,4.1,3.5c1.9,0.8,4,1.2,6.2,1.2
		c2.2,0,4.4-0.4,6.3-1.2c1.5-0.6,3.8-2.1,4-3.6c0.1-0.4,0-0.8-0.3-1c-0.2-0.2-0.4-0.2-0.7-0.2c-0.3,0.1-0.4,0.2-0.6,0.4
		c0,0,0,0.1-0.1,0.1c-0.1,0.1-0.2,0.2-0.3,0.3c0,0-0.1,0.1-0.1,0.1c-0.6,0.6-1.3,1-2.2,1.4c-4.2,1.8-11.6,1.5-14.6-1.5
		c-0.1-0.1-0.1-0.1-0.2-0.2C77.4,44,77.1,43.6,76.6,43.7z"/>
	<path class="st0" d="M86.2,44.6C86.2,44.6,86.2,44.6,86.2,44.6c2.2,0,4.2-0.5,5.9-1.3c0.8-0.4,2.4-1.5,2.7-2.8
		c0.1-0.6,0-1.1-0.5-1.6l0,0h-0.5l-0.1,0l0,0c-0.9,1.1-1.4,1.7-3,2.4c-2.5,1.1-6.4,1.1-9,0c-1.4-0.6-2-1.3-2.9-2.4l0,0h-0.6L78.1,39
		c-0.2,0.3-0.4,0.7-0.4,1.3c0,0.5,0.3,0.9,0.6,1.3C80,43.8,83.6,44.6,86.2,44.6z"/>
	<rect x="420.3" y="138.1" class="st0" width="3.9" height="43.3"/>
	<path class="st0" d="M88.1,93.8V73.9h-3.3l-3.9,13.7c-0.2,0.9-0.4,1.6-0.6,2.2L76,73.9h-3.6v19.9h2.5v-15l4.2,15h2.3l4.2-14.7v14.7
		H88.1z"/>
	<path class="st0" d="M92.6,76.3c-1.5,1.8-2.2,4.4-2.2,7.8c0,2.7,0.7,5,2,6.9c1.5,2.1,3.5,3.2,5.9,3.2c2.4,0,4.4-1,5.9-3.1
		c1.3-1.8,2-4.3,2-7.2c0-2.1-0.3-4-1-5.5c-0.7-1.6-1.6-2.8-2.8-3.6c-1.2-0.8-2.5-1.2-4-1.2C96,73.5,94.1,74.4,92.6,76.3z
		 M100.9,77.1c0.8,0.6,1.4,1.4,1.8,2.3c0.5,1.3,0.8,2.8,0.8,4.4c0,2.5-0.5,4.5-1.5,5.7s-2.2,1.9-3.7,1.9c-1.4,0-2.6-0.6-3.7-1.9
		c-1-1.3-1.5-3.1-1.5-5.4c0-2.7,0.5-4.7,1.5-6h0c1-1.3,2.2-1.9,3.7-1.9C99.2,76.2,100.1,76.5,100.9,77.1z"/>
	<polygon class="st0" points="118.8,88.4 110.8,73.9 108.2,73.9 108.2,93.8 110.7,93.8 110.7,79.2 118.7,93.8 121.3,93.8 
		121.3,73.9 118.8,73.9 	"/>
	<path class="st0" d="M137.6,93.8v-20h-1.7l-0.1,0.2c-0.3,0.8-0.9,1.7-1.7,2.5c-0.8,0.9-1.7,1.6-2.8,2.2l-0.1,0.1v2.8l0.4-0.2
		c0.7-0.3,1.4-0.7,2.1-1.3c0.5-0.4,1-0.8,1.4-1.2v14.8H137.6z"/>
	<path class="st0" d="M146,86.2c-1.6,1.6-2.7,3-3.3,4.1c-0.6,1.2-0.9,2.3-0.9,3.2l0,0.2h11V91h-7.7c0.2-0.3,0.4-0.6,0.6-0.9
		c0.3-0.4,1.1-1.2,2.2-2.4c1.8-1.9,3.1-3.4,3.8-4.6c0.7-1.2,1-2.4,1-3.7c0-1.4-0.4-2.8-1.3-3.9c-0.9-1.2-2.2-1.7-3.9-1.7
		c-1.6,0-2.8,0.5-3.8,1.5c-1,1-1.5,2.4-1.7,4.4l0,0.2l2.5,0.3v-0.3c0-1.2,0.3-2.1,0.8-2.7c0.5-0.6,1.2-0.9,2.1-0.9
		c0.8,0,1.4,0.3,2,0.9c0.5,0.6,0.8,1.3,0.8,2.2c0,0.8-0.3,1.7-0.8,2.7C149,83,147.8,84.4,146,86.2z"/>
	<rect x="155.6" y="90.6" class="st0" width="2.7" height="3.2"/>
	<rect x="155.6" y="79.2" class="st0" width="2.7" height="3.2"/>
	<path class="st0" d="M165.9,91.7c-1.5,0-2.5-1.2-2.8-3.6l0-0.2l-2.4,0.4l0,0.2c0.1,1.7,0.7,3.1,1.7,4.1c1,1,2.2,1.6,3.6,1.6
		c1.5,0,2.9-0.6,4-1.8c1.1-1.2,1.6-2.7,1.6-4.5c0-0.9-0.1-1.7-0.4-2.4c-0.3-0.7-0.6-1.3-1.1-1.7c-0.3-0.3-0.7-0.6-1.2-0.8
		c0.5-0.4,0.9-0.8,1.3-1.4c0.4-0.7,0.6-1.5,0.6-2.5c0-1.5-0.5-2.8-1.4-3.8c-0.9-1-2.1-1.5-3.5-1.5c-1.3,0-2.4,0.5-3.3,1.3
		c-0.9,0.9-1.5,2.2-1.7,3.9l0,0.2l2.4,0.5l0-0.3c0.1-1.1,0.4-2,0.9-2.5c0.5-0.5,1-0.8,1.7-0.8c0.7,0,1.2,0.2,1.7,0.7
		c0.5,0.5,0.7,1.2,0.7,2c0,0.9-0.3,1.6-0.8,2.2c-0.6,0.5-1.3,0.8-2.2,0.8l-0.6,0l-0.3,2.7l0.4-0.1c0.5-0.2,1-0.3,1.3-0.3
		c0.8,0,1.5,0.3,2,0.9c0.6,0.6,0.8,1.5,0.8,2.6c0,1.1-0.3,2.1-0.9,2.8C167.5,91.3,166.8,91.7,165.9,91.7z"/>
	<path class="st0" d="M178.4,94.1c1.8,0,3.2-0.9,4.1-2.7c0.9-1.7,1.3-4.2,1.3-7.5c0-3.6-0.5-6.3-1.6-8c-0.9-1.4-2.2-2.2-3.8-2.2
		c-1.8,0-3.2,0.9-4.1,2.7c-0.9,1.7-1.3,4.2-1.3,7.5c0,3.7,0.5,6.3,1.5,7.8C175.5,93.3,176.8,94.1,178.4,94.1z M176.4,77.7
		c0.6-1,1.2-1.5,2-1.5c0.9,0,1.6,0.5,2.1,1.5c0.6,1,0.9,3.1,0.9,6.2c0,3.1-0.3,5.2-0.9,6.2c-0.6,1-1.2,1.5-2,1.5
		c-0.9,0-1.5-0.5-2.1-1.5c-0.6-1-0.9-3.1-0.9-6.2C175.5,80.9,175.8,78.8,176.4,77.7z"/>
	<path class="st0" d="M393.3,122c-2.1,1.9-3.5,3.5-4.2,4.7c-0.7,1.2-1.2,2.5-1.3,3.8l0,0.3h13.6v-4h-7.2c0.1-0.2,0.3-0.4,0.5-0.6
		c0.3-0.3,1.1-1.1,2.2-2.1c1.2-1.1,2-1.9,2.5-2.5c0.7-0.9,1.2-1.7,1.5-2.5c0.3-0.8,0.5-1.7,0.5-2.6c0-1.6-0.6-3-1.7-4
		c-1.1-1.1-2.7-1.6-4.7-1.6c-1.8,0-3.3,0.5-4.5,1.4c-1.2,0.9-1.9,2.5-2.2,4.6l0,0.3l4.2,0.4l0-0.3c0.1-1,0.3-1.8,0.7-2.2
		c0.4-0.4,1-0.6,1.7-0.6c0.7,0,1.3,0.2,1.7,0.6c0.4,0.4,0.6,1,0.6,1.7c0,0.7-0.2,1.4-0.7,2.1C395.9,119.4,394.9,120.4,393.3,122z"/>
	<path class="st0" d="M408.3,122c-2.1,2-3.5,3.5-4.2,4.7c-0.7,1.2-1.2,2.5-1.3,3.8l0,0.3h13.6v-4h-7.2c0.1-0.2,0.3-0.4,0.5-0.6
		c0.3-0.3,1-1.1,2.2-2.1c1.2-1.1,2-1.9,2.5-2.5c0.7-0.9,1.2-1.7,1.5-2.5c0.3-0.8,0.5-1.7,0.5-2.6c0-1.6-0.6-3-1.7-4
		c-1.1-1.1-2.7-1.6-4.7-1.6c-1.8,0-3.3,0.5-4.5,1.4c-1.2,0.9-2,2.5-2.2,4.6l0,0.3l4.2,0.4l0-0.3c0.1-1,0.3-1.8,0.7-2.2
		c0.4-0.4,1-0.6,1.7-0.6c0.7,0,1.3,0.2,1.7,0.6c0.4,0.4,0.6,1,0.6,1.7c0,0.7-0.2,1.4-0.7,2.1C411,119.4,410,120.4,408.3,122z"/>
	<rect x="419.9" y="126.6" class="st0" width="4.2" height="4.2"/>
	<rect x="419.9" y="116.2" class="st0" width="4.2" height="4.2"/>
	<path class="st0" d="M439.8,116c0-1.3-0.5-2.4-1.4-3.4c-1.1-1.2-2.7-1.8-4.6-1.8c-1.1,0-2.1,0.2-3,0.6c-0.9,0.4-1.6,1-2.1,1.7
		c-0.5,0.7-0.9,1.7-1.1,2.9l-0.1,0.3l3.9,0.7l0-0.3c0.1-0.8,0.3-1.4,0.7-1.8c0.4-0.4,0.9-0.6,1.5-0.6c0.6,0,1,0.2,1.4,0.5
		c0.3,0.3,0.5,0.8,0.5,1.4c0,0.7-0.2,1.2-0.7,1.7c-0.5,0.4-1.2,0.6-2.1,0.6l-0.2,0l-0.5,3.6l0.4-0.1c1.6-0.4,2.5-0.4,3.3,0.5
		c0.5,0.5,0.7,1.2,0.7,2.1c0,0.9-0.2,1.7-0.7,2.2c-0.5,0.5-1.1,0.8-1.8,0.8c-0.7,0-1.2-0.2-1.7-0.7s-0.7-1.1-0.9-2l0-0.2l-4.1,0.5
		l0,0.2c0.2,1.7,0.9,3.1,2.1,4.1l0,0c1.2,1,2.7,1.6,4.5,1.6c1.9,0,3.5-0.6,4.8-1.9c1.3-1.2,1.9-2.8,1.9-4.5c0-1.2-0.4-2.3-1.1-3.2
		c-0.6-0.7-1.3-1.2-2.2-1.5C439,119,439.8,117.6,439.8,116z"/>
	<path class="st0" d="M444.3,128.8c1.2,1.5,2.8,2.3,4.8,2.3c2,0,3.5-0.7,4.6-2.1c1.3-1.6,2-4.4,2-8.1c0-3.7-0.7-6.4-1.9-8.1
		c-1.1-1.4-2.7-2.1-4.6-2.1s-3.5,0.7-4.6,2.1c-1.3,1.6-2,4.4-2,8.1C442.5,124.7,443.1,127.4,444.3,128.8z M447.3,116.2
		c0.2-0.7,0.4-1.2,0.7-1.4c0.3-0.3,0.7-0.4,1-0.4c0.4,0,0.7,0.1,1,0.4c0.3,0.3,0.6,0.8,0.8,1.6c0.2,0.8,0.3,2.4,0.3,4.6
		c0,2.2-0.1,3.9-0.4,4.8c-0.2,0.7-0.4,1.2-0.7,1.4c-0.6,0.5-1.5,0.5-2.1,0c-0.3-0.2-0.6-0.8-0.8-1.6c-0.2-0.8-0.3-2.4-0.3-4.6
		C446.9,118.7,447,117.1,447.3,116.2z"/>
	<polygon class="st0" points="94.2,380.3 94.2,366.5 99.5,366.5 99.5,364.1 86.2,364.1 86.2,366.5 91.5,366.5 91.5,380.3 	"/>
	<path class="st0" d="M102.3,375.6h5.8l1.6,4.7h2.9l-5.9-16.2H104l-6.1,16.2h2.7L102.3,375.6z M105.2,367.5l2.1,5.9h-4.2
		L105.2,367.5z"/>
	<path class="st0" d="M126.3,371.1c0.4-0.6,0.6-1.5,0.6-2.4c0-1.9-0.8-3.2-2.3-3.9c-0.8-0.4-1.8-0.5-3-0.5h-7.4v16.2h2.6v-6.7h4.5
		c0.8,0,1.4,0.1,1.7,0.3c0.6,0.3,0.9,0.9,1,1.9l0.1,2.6c0,0.6,0.1,1,0.1,1.3c0,0.2,0.1,0.4,0.2,0.6l0.1,0.1h3v-0.8l-0.2-0.1
		c-0.3-0.1-0.4-0.4-0.5-0.8c-0.1-0.3-0.1-0.7-0.1-1.3l-0.1-2.1c0-1-0.2-1.7-0.6-2.1c-0.3-0.3-0.6-0.6-1-0.9
		C125.5,372,125.9,371.6,126.3,371.1z M123.5,370.8c-0.5,0.4-1.2,0.6-2.2,0.6h-4.5v-4.9h4.8c0.7,0,1.2,0.1,1.6,0.3
		c0.7,0.4,1,1,1,2.1C124.2,369.8,124,370.4,123.5,370.8z"/>
	<path class="st0" d="M131.3,378.9c1.4,1.2,3,1.9,4.9,1.9c1.5,0,2.7-0.3,3.6-0.8c0.5-0.3,1-0.7,1.6-1.4l0.4,1.8h1.8v-8.9h-7.4v2.3
		h4.9c-0.1,1.6-0.5,2.8-1.3,3.6c-0.9,0.8-2,1.2-3.3,1.2c-1.7,0-3-0.6-3.7-1.7c-0.8-1.1-1.2-2.6-1.2-4.4c0-2.1,0.5-3.7,1.4-4.7
		c0.9-1,2-1.6,3.4-1.6c1.1,0,2.1,0.2,2.8,0.7c0.7,0.5,1.2,1.3,1.5,2.4l0,0.2h2.6l0-0.3c-0.4-2.1-1.4-3.6-3-4.5
		c-1.1-0.6-2.4-0.9-3.9-0.9c-2.2,0-4,0.8-5.4,2.3c-1.4,1.6-2.2,3.8-2.2,6.4C129.1,375.2,129.9,377.3,131.3,378.9z"/>
	<polygon class="st0" points="158.8,366.6 158.8,364.1 146.9,364.1 146.9,380.3 159,380.3 159,378 149.5,378 149.5,373.1 
		158.1,373.1 158.1,370.8 149.5,370.8 149.5,366.6 	"/>
	<polygon class="st0" points="168,380.3 168,366.5 173.3,366.5 173.3,364.1 160,364.1 160,366.5 165.3,366.5 165.3,380.3 	"/>
	<path class="st0" d="M501.9,364.1h-2.7l-6.1,16.2h2.7l1.7-4.7h5.8l1.6,4.7h2.9l-5.8-16L501.9,364.1z M498.3,373.4l2.2-5.9l2.1,5.9
		H498.3z"/>
	<path class="st0" d="M522.7,374.4l0-0.3h-2.6l0,0.2c-0.2,1-0.5,1.8-0.9,2.4c-0.8,1.1-1.8,1.7-3.3,1.7c-1.6,0-2.8-0.5-3.6-1.6
		c-0.8-1.1-1.2-2.6-1.2-4.3c0-2.2,0.5-3.8,1.3-4.8c0.9-1,2-1.5,3.5-1.5c1.2,0,2.1,0.3,2.7,0.8c0.6,0.6,1.1,1.3,1.3,2.3l0,0.2h2.5
		l0-0.3c-0.1-1.4-0.8-2.6-1.9-3.7c-1.1-1.1-2.7-1.6-4.8-1.6c-2.4,0-4.3,0.8-5.6,2.5c-1.2,1.5-1.9,3.5-1.9,5.9c0,3.1,0.8,5.5,2.5,7
		c1.3,1.1,2.9,1.7,4.7,1.7c2.2,0,3.9-0.7,5.2-2.1C521.9,377.5,522.5,376.1,522.7,374.4z"/>
	<polygon class="st0" points="531.6,380.3 531.6,366.5 536.9,366.5 536.9,364.1 523.6,364.1 523.6,366.5 528.9,366.5 528.9,380.3 	
		"/>
	<path class="st0" d="M538.5,364.1v9.1c0,2,0.3,3.5,0.8,4.6c1,2,2.9,3,5.6,3c2.8,0,4.7-1,5.7-3c0.5-1.1,0.8-2.6,0.8-4.6v-9.1h-2.7
		v10c0,1.1-0.2,2-0.5,2.6c-0.6,1.2-1.8,1.7-3.5,1.7c-1.4,0-2.4-0.5-3-1.6c-0.4-0.7-0.6-1.6-0.6-2.7v-10H538.5z"/>
	<path class="st0" d="M561.6,364.1h-2.7l-6.1,16.2h2.7l1.7-4.7h5.8l1.6,4.7h2.9l-5.8-16L561.6,364.1z M557.9,373.4l2.2-5.9l2.1,5.9
		H557.9z"/>
	<polygon class="st0" points="568.7,364.1 568.7,380.3 579.3,380.3 579.3,378 571.4,378 571.4,364.1 	"/>
	<path class="st0" d="M97.4,321.6c-6.7,6.2-11.3,11.3-13.5,15.1c-2.3,3.8-3.7,7.9-4.1,12.1l0,0.3h42.6v-11.7H98.7
		c0.6-0.9,1.3-1.9,2.2-2.9c1-1.1,3.4-3.4,7.2-6.9c3.8-3.5,6.4-6.2,7.9-8c2.2-2.8,3.8-5.5,4.8-8.1c1-2.6,1.5-5.3,1.5-8.1
		c0-5-1.8-9.3-5.4-12.6c-3.6-3.4-8.5-5.1-14.7-5.1c-5.7,0-10.5,1.5-14.3,4.4c-3.8,2.9-6.1,7.8-6.8,14.4l0,0.3l12.5,1.2l0-0.3
		c0.2-3.4,1.1-5.9,2.5-7.4c1.4-1.5,3.4-2.2,5.8-2.2c2.5,0,4.4,0.7,5.8,2.1c1.4,1.4,2.1,3.4,2.1,6c0,2.4-0.8,4.8-2.4,7.2
		C106.2,313.1,102.8,316.6,97.4,321.6z"/>
	<path class="st0" d="M164.9,343.6c4.1-5.2,6.2-13.9,6.2-25.7c0-11.9-2.1-20.5-6.2-25.7c-3.5-4.4-8.3-6.6-14.4-6.6
		c-6.1,0-11,2.2-14.4,6.5h0c-4.1,5.2-6.2,13.8-6.2,25.6c0,12,1.9,20.5,5.7,25.2c3.8,4.7,8.8,7.1,14.9,7.1
		C156.6,350.1,161.5,347.9,164.9,343.6z M156.8,333.4c-0.6,2.3-1.5,4-2.6,4.8c-1.1,0.9-2.3,1.3-3.7,1.3s-2.6-0.4-3.7-1.3
		c-1.1-0.9-2-2.7-2.7-5.4c-0.7-2.7-1.1-7.8-1.1-15.1c0-7.3,0.4-12.6,1.2-15.6c0.6-2.3,1.5-4,2.6-4.8c1.1-0.9,2.3-1.3,3.7-1.3
		c1.4,0,2.6,0.4,3.7,1.3c1.1,0.9,2,2.7,2.7,5.4c0.7,2.7,1.1,7.8,1.1,15.1C158,325.2,157.6,330.4,156.8,333.4z"/>
	<path class="st0" d="M178.8,291.7c0,5,4,9,9,9c5,0,9-4,9-9c0-5-4-9-9-9C182.8,282.7,178.8,286.7,178.8,291.7z M192.8,291.7
		c0,2.8-2.2,5-5,5c-2.8,0-5-2.2-5-5s2.2-5,5-5C190.5,286.7,192.8,288.9,192.8,291.7z"/>
	<path class="st0" d="M496.9,350h12.5v-63.4h-10.2l-0.1,0.2c-1.3,3.8-3.9,7.1-7.5,9.9c-3.6,2.8-7,4.8-10.1,5.8l-0.2,0.1v11.4
		l0.3-0.1c5.8-1.9,10.9-4.9,15.2-8.8V350z"/>
	<path class="st0" d="M565.6,321.9c-1.7-2.6-4.3-4.6-7.5-6c2.5-1.2,4.5-2.9,6-5c1.5-2.3,2.3-5,2.3-7.9c0-4.7-1.7-8.7-5-11.8
		c-3.3-3.1-8-4.6-14-4.6c-6,0-10.8,1.6-14.1,4.6c-3.3,3.1-5,7-5,11.8c0,2.8,0.7,5.4,2.2,7.7c1.4,2.2,3.5,4,6.4,5.3
		c-3.4,1.5-5.9,3.7-7.5,6.4c-1.7,2.9-2.6,6-2.6,9.5c0,6.2,2.3,11.2,6.8,14.7c3.8,3,8.7,4.5,14.4,4.5c6.2,0,11.2-1.8,14.9-5.5
		c3.7-3.7,5.6-8.5,5.6-14.3C568.4,327.8,567.4,324.6,565.6,321.9z M542.1,298.6c1.3-1.3,3.1-2,5.3-2c2.1,0,3.9,0.7,5.2,2
		c1.3,1.3,2,3.1,2,5.2c0,2.3-0.7,4.1-2,5.4c-1.3,1.3-3.1,2-5.3,2c-2.2,0-3.9-0.7-5.2-1.9c-1.3-1.3-2-3.1-2-5.4
		C540.1,301.6,540.8,299.9,542.1,298.6z M553.6,338.3c-1.6,1.7-3.6,2.6-6,2.6c-2.5,0-4.5-0.9-6.2-2.7c-1.6-1.8-2.5-4.3-2.5-7.6
		c0-2.3,0.7-4.5,2.1-6.4c1.4-1.9,3.5-2.9,6.4-2.9c2.5,0,4.5,0.9,6.1,2.6c1.6,1.7,2.4,4,2.4,6.9C556,334.1,555.2,336.6,553.6,338.3z"
		/>
	<path class="st0" d="M593.6,292.6c0-5-4-9-9-9c-5,0-9,4-9,9c0,5,4,9,9,9C589.6,301.6,593.6,297.6,593.6,292.6z M579.6,292.6
		c0-2.8,2.2-5,5-5c2.8,0,5,2.2,5,5c0,2.8-2.2,5-5,5C581.9,297.6,579.6,295.4,579.6,292.6z"/>
	<path class="st0" d="M417,181.1v-42.8v-0.3H72.1v0.3v42.8v0.3H417V181.1z M242.8,167.3v4.5h-15.6l0-0.3c0.2-1.5,0.7-3,1.5-4.4
		c0.8-1.4,2.5-3.2,4.9-5.4c1.9-1.8,3.1-3,3.5-3.6c0.6-0.8,0.8-1.7,0.8-2.5c0-0.9-0.2-1.6-0.7-2c-0.5-0.5-1.1-0.7-2-0.7
		c-0.8,0-1.5,0.2-2,0.7c-0.5,0.5-0.8,1.3-0.8,2.5l0,0.3l-4.8-0.5l0-0.3c0.3-2.4,1.1-4.2,2.5-5.3c1.4-1.1,3.1-1.6,5.2-1.6
		c2.3,0,4.1,0.6,5.4,1.9c1.3,1.2,2,2.8,2,4.6c0,1-0.2,2-0.6,3c-0.4,0.9-1,1.9-1.8,2.9c-0.5,0.7-1.5,1.6-2.8,2.9
		c-1.3,1.2-2.2,2.1-2.6,2.5c-0.2,0.3-0.4,0.5-0.6,0.8H242.8z M258,169.8c-1.3,1.6-3,2.4-5.3,2.4c-2.3,0-4.1-0.9-5.5-2.6
		c-1.4-1.7-2.1-4.8-2.1-9.1c0-4.3,0.8-7.4,2.3-9.3h0c1.3-1.6,3-2.4,5.3-2.4s4,0.8,5.3,2.4c1.5,1.9,2.2,5,2.2,9.3
		C260.3,164.8,259.5,167.9,258,169.8z M266.1,154.3c-1.8,0-3.2-1.4-3.2-3.2c0-1.8,1.4-3.2,3.2-3.2c1.8,0,3.2,1.4,3.2,3.2
		C269.3,152.9,267.8,154.3,266.1,154.3z"/>
	<circle class="st0" cx="266.1" cy="151.1" r="1.8"/>
	<path class="st0" d="M254,153.3c-0.4-0.3-0.8-0.4-1.2-0.4c-0.5,0-0.9,0.1-1.2,0.4c-0.4,0.3-0.7,0.9-0.9,1.7c-0.3,1.1-0.4,3-0.4,5.6
		c0,2.6,0.1,4.4,0.4,5.4c0.2,0.9,0.6,1.5,0.9,1.8c0.4,0.3,0.8,0.4,1.2,0.4c0.5,0,0.9-0.1,1.2-0.4c0.4-0.3,0.7-0.9,0.9-1.7
		c0.3-1.1,0.4-2.9,0.4-5.5c0-2.6-0.1-4.4-0.4-5.4C254.6,154.2,254.3,153.6,254,153.3z"/>
	<path class="st0" d="M518.4,160.2c-0.8,0-1.5,0.3-2.1,1c-0.6,0.6-0.9,1.6-0.9,2.9c0,1.4,0.3,2.5,1,3.2c0.6,0.8,1.4,1.1,2.2,1.1
		c0.8,0,1.5-0.3,2-0.9c0.5-0.6,0.8-1.6,0.8-3.1c0-1.5-0.3-2.5-0.9-3.2C520,160.5,519.3,160.2,518.4,160.2z"/>
	<circle class="st0" cx="531.2" cy="151.1" r="1.8"/>
	<path class="st0" d="M596.5,138.1H427.2v43.3h169.3V138.1z M504.2,171.6h-4.3v-16.2c-1.6,1.5-3.4,2.6-5.6,3.3v-3.9
		c1.1-0.4,2.3-1.1,3.7-2.1c1.3-1,2.2-2.2,2.7-3.6h3.5V171.6z M523.6,169.9c-1.4,1.4-3.1,2.1-5.2,2.1c-2.3,0-4.1-0.9-5.6-2.6
		c-1.5-1.8-2.2-4.6-2.2-8.7c0-4.1,0.8-7.1,2.3-8.9c1.5-1.8,3.5-2.7,5.9-2.7c1.7,0,3.1,0.5,4.2,1.4c1.1,1,1.8,2.3,2.1,4.2l-4.2,0.5
		c-0.1-0.9-0.4-1.5-0.8-1.9c-0.4-0.4-1-0.6-1.7-0.6c-0.9,0-1.7,0.4-2.3,1.2c-0.6,0.8-1,2.5-1.2,5.1c1.1-1.3,2.4-1.9,4-1.9
		c1.8,0,3.3,0.7,4.6,2.1c1.3,1.4,1.9,3.1,1.9,5.3C525.6,166.6,524.9,168.5,523.6,169.9z M531.2,154.3c-1.8,0-3.2-1.4-3.2-3.2
		c0-1.8,1.4-3.2,3.2-3.2c1.8,0,3.2,1.4,3.2,3.2C534.5,152.9,533,154.3,531.2,154.3z"/>
	<path class="st0" d="M452.2,94.1c2.4,0,4.4-1,5.9-3.1c1.3-1.8,2-4.3,2-7.2c0-2.1-0.3-4-1-5.5c-0.7-1.6-1.6-2.8-2.8-3.6
		c-1.2-0.8-2.5-1.2-4-1.2c-2.2,0-4.1,0.9-5.6,2.8c-1.5,1.8-2.2,4.4-2.2,7.8c0,2.7,0.7,5,2,6.9C447.8,93,449.8,94.1,452.2,94.1z
		 M448.5,78.1c1-1.3,2.2-1.9,3.7-1.9c0.9,0,1.8,0.3,2.6,0.9c0.8,0.6,1.4,1.4,1.8,2.3c0.5,1.3,0.8,2.8,0.8,4.4c0,2.5-0.5,4.5-1.5,5.7
		c-1,1.3-2.2,1.9-3.7,1.9c-1.4,0-2.7-0.6-3.7-1.9c-1-1.3-1.5-3.1-1.5-5.4C447,81.4,447.5,79.4,448.5,78.1z"/>
	<polygon class="st0" points="473.6,76.7 473.6,73.9 462.4,73.9 462.4,93.8 465,93.8 465,85 472.5,85 472.5,82.2 465,82.2 465,76.7 
			"/>
	<polygon class="st0" points="487.2,76.7 487.2,73.9 476,73.9 476,93.8 478.6,93.8 478.6,85 486.1,85 486.1,82.2 478.6,82.2 
		478.6,76.7 	"/>
	<path class="st0" d="M558.6,91.3c-0.8,0-1.6-0.2-2.2-0.5c-0.7-0.3-1.2-0.8-1.5-1.3c-0.4-0.6-0.6-1.4-0.7-2.4l0-0.3l-2.5,0.3l0,0.2
		c0,2.1,0.7,3.8,1.9,5c1.2,1.2,2.9,1.8,4.9,1.8c1.3,0,2.4-0.2,3.4-0.7c0.9-0.5,1.7-1.2,2.2-2.2c0.5-0.9,0.8-2,0.8-3.2
		c0-1.2-0.3-2.2-0.8-3c-0.5-0.8-1.3-1.5-2.3-2c-0.7-0.3-1.8-0.7-3.4-1.1c-1.6-0.4-2.6-0.9-3-1.3c-0.4-0.4-0.6-0.9-0.6-1.6
		c0-0.8,0.3-1.4,0.9-1.9c0.6-0.5,1.4-0.7,2.6-0.7c1.1,0,2,0.3,2.6,0.8c0.6,0.6,1,1.5,1.1,2.6l0,0.3l2.5-0.2l0-0.2
		c0-1.2-0.3-2.3-0.8-3.2c-0.5-0.9-1.2-1.6-2.2-2.1c-0.9-0.5-2-0.7-3.2-0.7c-1.8,0-3.2,0.5-4.3,1.6c-1.1,1-1.6,2.4-1.6,4
		c0,0.9,0.2,1.7,0.6,2.5c0.4,0.7,0.9,1.3,1.6,1.8c0.7,0.5,1.8,0.9,3.3,1.4c1.7,0.5,2.8,0.9,3.2,1.1c0.5,0.2,0.8,0.6,1,1
		c0.2,0.4,0.3,0.8,0.3,1.4c0,0.9-0.3,1.6-1,2.2C560.8,91,559.8,91.3,558.6,91.3z"/>
	<path class="st0" d="M571.7,77c0.7-0.5,1.6-0.8,2.6-0.8c2,0,3.3,1.3,4,3.9l0.1,0.2l2.5-0.7l-0.1-0.2c-0.5-1.9-1.3-3.4-2.4-4.3
		c-1.1-1-2.5-1.5-4.1-1.5c-1.5,0-2.8,0.4-4,1.2c-1.2,0.8-2.1,1.9-2.8,3.5c-0.7,1.5-1,3.4-1,5.5c0,2.2,0.3,4.1,1,5.7
		c0.7,1.6,1.6,2.8,2.7,3.6c1.1,0.7,2.4,1.1,3.9,1.1c1.7,0,3.2-0.6,4.4-1.7c1.2-1.1,2.1-2.8,2.5-5l0-0.2l-2.6-0.8l0,0.3
		c-0.3,1.6-0.8,2.8-1.6,3.6c-0.8,0.8-1.7,1.2-2.8,1.2c-1.5,0-2.6-0.6-3.5-1.9c-0.9-1.3-1.4-3.2-1.4-5.8c0-1.7,0.2-3.2,0.7-4.3
		C570.4,78.3,571,77.5,571.7,77z"/>
	<polygon class="st0" points="583.3,73.9 583.3,93.8 585.9,93.8 585.9,84.6 593.7,84.6 593.7,93.8 596.3,93.8 596.3,73.9 
		593.7,73.9 593.7,81.8 585.9,81.8 585.9,73.9 	"/>
	<path class="st0" d="M434.7,83.3c0-8.8-7.1-15.9-15.9-15.9s-15.9,7.1-15.9,15.9c0,8.8,7.1,15.9,15.9,15.9S434.7,92.1,434.7,83.3z
		 M418.8,97.2c-7.7,0-13.9-6.2-13.9-13.9c0-7.7,6.2-13.9,13.9-13.9s13.9,6.2,13.9,13.9C432.7,91,426.5,97.2,418.8,97.2z"/>
	<path class="st0" d="M425.7,79.6c-0.8-0.2-1.6-0.2-2.3-0.5c-0.8-0.4-1.7-0.8-1.6-1.9c0.2-1,1.1-0.7,1.8-0.7c0.1,0,0.2,0,0.2,0
		c0.3-0.4,0.9-0.8,0.9-1.2c0-0.4-0.6-1-1-1c-2.1-0.1-4.1-0.2-6.2-0.1c-0.4,0-1,0.7-1,1.1c0,0.4,0.4,1,0.8,1.2c0.5,0.2,1.2,0.1,2,0.2
		c-0.2,1.9-1.1,2.8-2.9,3c-0.8,0.1-1.6,0-2.4,0.2c-2.4,0.4-3.7,2.5-3,4.8c0.1,0.4,0.7,1.1,1,1.1c1,0,2.2,0.1,2.9-0.4
		c1.2-0.9,2.1-0.9,3.2-0.2c1.5,0.9,3,0.9,4.5,0.1c0.8-0.4,1.8-0.6,2.7-0.8c1.5-0.3,1.7-0.5,1.8-2C427.4,80.5,427.1,79.9,425.7,79.6z
		"/>
	<path class="st0" d="M413.5,87.4c-0.3,0-0.5,0-0.8,0c-0.5,0.9-1.1,1.7-1.5,2.6c-0.4,0.9-0.2,1.8,0.6,2.3c0.5,0.3,1.4,0.4,1.9,0.2
		c0.9-0.3,1.2-1.3,1-2.2C414.5,89.3,414,88.4,413.5,87.4z"/>
	<path class="st0" d="M543.9,83.3c0-8.8-7.1-15.9-15.9-15.9s-15.9,7.1-15.9,15.9c0,8.8,7.1,15.9,15.9,15.9S543.9,92.1,543.9,83.3z
		 M514.1,83.3c0-7.7,6.2-13.9,13.9-13.9s13.9,6.2,13.9,13.9c0,7.7-6.2,13.9-13.9,13.9S514.1,91,514.1,83.3z"/>
	<path class="st0" d="M534.6,91c0-1-0.9-1-1.6-1c-1.8,0-3.5,0-5.3,0c-1.8,0-3.7,0-5.5,0c-0.7,0-1.5,0.1-1.5,1.1
		c0,0.9,0.7,1.2,1.5,1.2c3.6,0,7.2,0,10.8,0C533.8,92.3,534.7,92.1,534.6,91z"/>
	<path class="st0" d="M521.9,87.7c0.2-0.1,0.4-0.5,0.4-0.8c0-0.4,0-0.8-0.2-1.2c-0.8-1.4-0.5-2.7,0.2-4.1c0.4-0.8,0.8-1.6,1.1-2.4
		c0.7-1.8-0.1-3.4-1-4.9c-0.2-0.2-0.7-0.4-1-0.3c-0.3,0.1-0.5,0.6-0.5,0.9c0,0.4,0.1,0.8,0.3,1.1c0.6,1.6,0.3,3.1-0.5,4.6
		c-0.6,1-0.8,2.2-1.3,3.5c0.5,1.1,1,2.2,1.6,3.3C521,87.7,521.6,87.8,521.9,87.7z"/>
	<path class="st0" d="M534.2,87.8c0-0.7,0.1-1.3,0-1.8c-0.6-1.9-0.2-3.6,0.7-5.3c0.3-0.6,0.5-1.2,0.7-1.8c0.4-2-0.4-3.9-2.3-5
		c-0.1,0.7-0.3,1.3-0.2,1.6c1.1,2.1,0.3,3.8-0.6,5.6c-0.3,0.5-0.5,1-0.7,1.5C531.1,84.7,532.2,87,534.2,87.8z"/>
	<path class="st0" d="M525.3,87.7c0.5,0.4,1.1,0.1,1.1-0.7c0-0.3-0.1-0.6-0.2-0.9c-0.7-1.7-0.5-3.2,0.3-4.8c0.5-1,0.8-2.1,1.2-3.3
		c-0.4-1.2-0.8-2.4-1.3-3.5c-0.1-0.2-0.7-0.3-1-0.3c-0.2,0-0.4,0.5-0.4,0.7c0,0.3,0,0.6,0.1,0.9c0.7,1.7,0.4,3.2-0.6,4.8
		c-1,1.6-1,3.4-0.5,5.1C524.2,86.5,524.7,87.2,525.3,87.7z"/>
	<path class="st0" d="M528.2,86.5c0.3,0.7,0.7,1.5,1.7,1.2c0.1-0.1,0.2-0.3,0.3-0.4c0.1-0.1,0.1-0.3,0.1-0.5
		c-1.1-2.4-0.4-4.6,0.8-6.8c0.9-1.8,0.6-3.7-0.5-5.4c-0.2-0.3-0.8-0.3-1.2-0.5c-0.1,0.4-0.5,0.9-0.4,1.2c1.2,2.1,0.5,3.9-0.6,5.9
		C527.5,82.9,527.4,84.7,528.2,86.5z"/>
	<path class="st0" d="M119.2,584.9c24,0,43.5-19.5,43.5-43.5s-19.5-43.5-43.5-43.5s-43.5,19.5-43.5,43.5S95.2,584.9,119.2,584.9z
		 M119.2,500.9c22.3,0,40.5,18.2,40.5,40.5s-18.2,40.5-40.5,40.5s-40.5-18.2-40.5-40.5S96.8,500.9,119.2,500.9z"/>
	<path class="st0" d="M113.8,547.2c0.8-0.8,0.8-2.2,0-3l-6.5-6.5h18.9c2.9,0,5.6,1.2,7.5,3.1c1.9,1.9,3.1,4.6,3.1,7.5
		c0,2.9-1.2,5.6-3.1,7.5c-1.9,1.9-4.6,3.1-7.5,3.1h-17.6c-1.2,0-2.1,0.9-2.1,2.1c0,1.2,0.9,2.1,2.1,2.1h17.6c4.1,0,7.9-1.7,10.6-4.4
		c2.7-2.7,4.4-6.4,4.4-10.6c0-4.1-1.7-7.9-4.4-10.6c-2.7-2.7-6.5-4.4-10.6-4.4h-18.8l6.3-6c0.8-0.8,0.9-2.2,0.1-3
		c-0.8-0.9-2.2-0.9-3-0.1l-11.7,11.3l11.7,11.6C111.6,548,113,548,113.8,547.2z"/>
	<path class="st0" d="M119.2,580.8c21.7,0,39.4-17.7,39.4-39.4S140.9,502,119.2,502s-39.4,17.7-39.4,39.4S97.5,580.8,119.2,580.8z
		 M119.2,503c21.2,0,38.4,17.2,38.4,38.4s-17.2,38.4-38.4,38.4s-38.4-17.2-38.4-38.4S98,503,119.2,503z"/>
	<path class="st0" d="M378,541.4c0-24-19.5-43.5-43.5-43.5c-24,0-43.5,19.5-43.5,43.5s19.5,43.5,43.5,43.5
		C358.5,584.9,378,565.4,378,541.4z M294,541.4c0-22.3,18.2-40.5,40.5-40.5c22.3,0,40.5,18.2,40.5,40.5s-18.2,40.5-40.5,40.5
		C312.2,581.9,294,563.7,294,541.4z"/>
	<path class="st0" d="M313.4,524.4c-0.9,0-1.7,0.3-2.2,0.9c-0.6,0.6-0.9,1.4-0.9,2.3c0,0.9,0.4,1.7,0.9,2.2c0.6,0.6,1.4,0.9,2.2,0.9
		c0.9,0,1.7-0.3,2.3-0.9c0.6-0.6,0.9-1.4,0.9-2.2c0-0.9-0.3-1.7-0.9-2.3C315,524.8,314.3,524.4,313.4,524.4z"/>
	<path class="st0" d="M324.6,530.8h29c0.9,0,1.7-0.3,2.2-0.9c0.6-0.6,0.9-1.4,0.9-2.2c0-0.9-0.4-1.7-0.9-2.3
		c-0.6-0.6-1.3-0.9-2.2-0.9h-29c-0.9,0-1.7,0.3-2.3,0.9c-0.6,0.6-0.9,1.4-0.9,2.3c0,0.9,0.3,1.7,0.9,2.2
		C322.9,530.4,323.7,530.8,324.6,530.8z"/>
	<path class="st0" d="M313.4,538.4c-0.9,0-1.7,0.3-2.2,0.9c-0.6,0.6-0.9,1.4-0.9,2.3c0,0.9,0.4,1.7,0.9,2.2c0.6,0.6,1.4,0.9,2.2,0.9
		c0.9,0,1.7-0.4,2.3-0.9c0.6-0.6,0.9-1.4,0.9-2.2c0-0.9-0.3-1.7-0.9-2.3C315,538.7,314.3,538.4,313.4,538.4z"/>
	<path class="st0" d="M324.6,544.8h29c0.9,0,1.7-0.4,2.2-0.9c0.6-0.6,0.9-1.4,0.9-2.2c0-0.9-0.4-1.7-0.9-2.3
		c-0.6-0.6-1.3-0.9-2.2-0.9h-29c-0.9,0-1.7,0.3-2.3,0.9c-0.6,0.6-0.9,1.4-0.9,2.3c0,0.9,0.3,1.7,0.9,2.2
		C322.9,544.4,323.7,544.8,324.6,544.8z"/>
	<path class="st0" d="M313.4,552.4c-0.9,0-1.7,0.4-2.2,0.9c-0.6,0.6-0.9,1.4-0.9,2.2c0,0.9,0.4,1.7,0.9,2.3c0.6,0.6,1.4,0.9,2.2,0.9
		c0.9,0,1.7-0.3,2.3-0.9c0.6-0.6,0.9-1.4,0.9-2.3c0-0.9-0.3-1.7-0.9-2.2C315,552.7,314.3,552.4,313.4,552.4z"/>
	<path class="st0" d="M355.9,557.8c0.6-0.6,0.9-1.4,0.9-2.3c0-0.9-0.4-1.7-0.9-2.2c-0.6-0.6-1.3-0.9-2.2-0.9h-29
		c-0.9,0-1.7,0.4-2.3,0.9c-0.6,0.6-0.9,1.4-0.9,2.2c0,0.9,0.3,1.7,0.9,2.3c0.6,0.6,1.4,0.9,2.3,0.9h29
		C354.5,558.7,355.3,558.4,355.9,557.8z"/>
	<path class="st0" d="M373.9,541.4c0-21.7-17.7-39.4-39.4-39.4s-39.4,17.7-39.4,39.4s17.7,39.4,39.4,39.4S373.9,563.1,373.9,541.4z
		 M296.2,541.4c0-21.2,17.2-38.4,38.4-38.4s38.4,17.2,38.4,38.4s-17.2,38.4-38.4,38.4S296.2,562.6,296.2,541.4z"/>
	<path class="st0" d="M628.3,537.6c-8-15.6-12.4-22.2-19.5-39.6c-5.8-14.1-10.9-28.5-14.6-44.5h-1.3h-0.1h-1.3
		c-3.7,15.9-8.8,30.3-14.6,44.5c-7.1,17.4-11.5,24-19.5,39.6l-22.2,36.8c-6.5,10.9-14.5,27.5-14.5,44.6c0,93.5,144.3,93.5,144.3,0
		c0-17-8-33.7-14.5-44.6L628.3,537.6z M581.3,678.1c-12.5,9.3-36.1-10.1-43.4-19.9c-7.2-9.7-19.1-38.6-6.7-47.8
		c9-6.6,27.5,3.1,41.3,21.8C586.4,650.9,590.3,671.4,581.3,678.1z"/>
</g>
</svg>
