<?xml version="1.0" encoding="utf-8"?>
<!-- Generator: Adobe Illustrator 20.0.0, SVG Export Plug-In . SVG Version: 6.00 Build 0)  -->
<svg version="1.1" id="Layer_1" xmlns="http://www.w3.org/2000/svg" xmlns:xlink="http://www.w3.org/1999/xlink" x="0px" y="0px"
	 viewBox="0 0 666.5 666.5" style="enable-background:new 0 0 666.5 666.5;" xml:space="preserve">
<style type="text/css">
	.st0{fill:#1A1A18;}
</style>
<g>
	<path class="st0" d="M665.5,81.4c0-44.7-36.2-81-81-81H80.5c-44.7,0-81,36.2-81,81v504.1c0,44.7,36.2,81,81,81h504.1
		c44.7,0,81-36.2,81-81V81.4z M659.5,585.5c0,41.4-33.6,75-75,75H80.5c-41.4,0-75-33.6-75-75V81.4c0-41.4,33.6-75,75-75h504.1
		c41.4,0,75,33.6,75,75V585.5z"/>
	<path class="st0" d="M650.5,80.8c0-36.1-29.2-65.3-65.3-65.3H80.8c-36.1,0-65.3,29.2-65.3,65.3v504.4c0,36.1,29.2,65.3,65.3,65.3
		h504.4c36.1,0,65.3-29.2,65.3-65.3V80.8z M647.5,585.2c0,34.4-27.9,62.3-62.3,62.3H80.8c-34.4,0-62.3-27.9-62.3-62.3V80.8
		c0-34.4,27.9-62.3,62.3-62.3h504.4c34.4,0,62.3,27.9,62.3,62.3V585.2z"/>
</g>
<g>
	<path class="st0" d="M334.5,231.9c-55.9,0-101.3,45.4-101.3,101.3c0,55.9,45.4,101.3,101.3,101.3s101.3-45.4,101.3-101.3
		C435.8,277.4,390.3,231.9,334.5,231.9z M334.5,433.5c-55.3,0-100.3-45-100.3-100.3c0-55.3,45-100.3,100.3-100.3
		s100.3,45,100.3,100.3C434.8,388.5,389.8,433.5,334.5,433.5z"/>
	<path class="st0" d="M334.5,212.4c-66.7,0-120.9,54.2-120.9,120.9c0,66.7,54.2,120.9,120.9,120.9s120.9-54.2,120.9-120.9
		C455.3,266.6,401.1,212.4,334.5,212.4z M334.5,450.1c-64.4,0-116.9-52.4-116.9-116.9S270,216.4,334.5,216.4s116.9,52.4,116.9,116.9
		S398.9,450.1,334.5,450.1z"/>
	<path class="st0" d="M334.5,228.1c-58,0-105.1,47.2-105.1,105.1c0,58,47.2,105.1,105.1,105.1s105.1-47.2,105.1-105.1
		C439.6,275.3,392.4,228.1,334.5,228.1z M334.5,437.4c-57.4,0-104.1-46.7-104.1-104.1c0-57.4,46.7-104.1,104.1-104.1
		s104.1,46.7,104.1,104.1C438.6,390.6,391.9,437.4,334.5,437.4z"/>
	<path class="st0" d="M334.5,234.5c-54.4,0-98.7,44.3-98.7,98.7S280,432,334.5,432s98.7-44.3,98.7-98.7S388.9,234.5,334.5,234.5z
		 M334.5,428c-52.2,0-94.7-42.5-94.7-94.7c0-52.2,42.5-94.7,94.7-94.7c52.2,0,94.7,42.5,94.7,94.7C429.2,385.5,386.7,428,334.5,428z
		"/>
</g>
<g>
	<g>
		<path class="st0" d="M118.5,53.7c0-0.2,0-0.5,0-0.7c0-1.7,0-3.1-0.7-4.5c-0.8-1.4-2.2-2-4.1-2c0,0,0,0-0.1,0
			c-2.3,0-3.2,0.9-3.7,1.6c0,0.1-0.2,0.1-0.2,0.1l-0.1-9.1v-0.1l-3.3,0l0.3,20.9V60l3.3,0l-0.1-0.1c0.1-0.6,0-1.6,0-2.4
			c0-0.3,0-0.7,0-0.9c0-0.4,0-0.9,0-1.3c-0.1-2.9-0.1-5.6,2.7-5.8c0.7-0.1,1.3,0.1,1.7,0.5c0.8,0.7,0.9,2.2,0.9,3.4
			c0,0.8,0,1.6,0,2.4c0,1.4,0,2.8,0,4.2l0,0.1l0.1,0c0.4,0,0.8,0,1.3,0c0.2,0,0.3,0,0.5,0l1.7-0.1l0-0.1c0.1-0.3,0.1-2.8,0-5.1
			C118.5,54.2,118.5,53.9,118.5,53.7z"/>
	</g>
	<g>
		<path class="st0" d="M152.5,52.5L152.5,52.5c0-0.2,0-0.4,0-0.7c-0.1-0.5-0.2-1.1-0.5-1.9c-0.9-2.3-3.1-3.7-5.8-3.7
			c-0.1,0-0.3,0-0.4,0c-2.6,0.1-5.7,1.8-6.6,5.1c-0.7,2.5-0.1,5,1.7,6.8c1.4,1.4,3.3,2.2,5.3,2.2c0.6,0,1.3-0.1,2-0.2
			c1.4-0.3,3.3-1.5,3.8-2.5l0-0.1l0-0.1c-0.1-0.2-0.3-0.3-0.4-0.4c0,0-0.1-0.1-0.2-0.1l-1.8-1.3l-0.1,0c-0.2,0.1-0.4,0.3-0.6,0.5
			c-0.1,0.1-0.2,0.2-0.3,0.3c-1.2,1-2.9,1.3-4.3,0.6c-1.1-0.5-1.8-1.6-1.8-2.6h9.9V52.5z M145.8,48.5
			C145.8,48.5,145.9,48.5,145.8,48.5c2,0,3.2,1.3,3.3,3.1l-6.5-0.1C142.7,49.8,144,48.5,145.8,48.5z"/>
	</g>
	<g>
		<path class="st0" d="M139.6,46.5l-3.5,0l0,0c0,0,0,0,0,0.1l-0.1,0.1c0,0.1-0.1,0.1-0.1,0.2c-0.3,0.7-0.9,2.2-1.5,3.9
			c-0.7,1.9-1.6,4.2-1.9,4.9l-3.5-9l0-0.1l-3.8,0l0,0.1c0.1,0.4,0.5,1.5,0.9,2.4c0.2,0.4,0.3,0.7,0.4,1c0.4,1.1,3.9,9.6,4.1,9.9l0,0
			l3.5,0l0,0c0.3-0.3,2.6-6.5,2.7-6.6c0.1-0.2,0.3-0.7,0.5-1.4c1-2.5,2-5,2-5.3L139.6,46.5z"/>
	</g>
	<g>
		<polygon class="st0" points="120.5,59.9 120.5,60 124.5,60 124.5,46.5 120.7,46.6 		"/>
	</g>
</g>
<g>
	<g>
		<path class="st0" d="M99,56.2c-0.2-0.2-0.3-0.2-0.5-0.2c-0.3,0-0.6,0.4-0.8,0.6c0,0-0.1,0.1-0.1,0.1c-5.2,6.2-16.8,6.4-22.7,2.3
			c-1.3-0.9-2-1.7-2.5-2.2c-0.4-0.5-0.7-0.8-1-0.7c-0.2,0-0.5,0.2-0.8,0.7l-0.1,0v1l0.1,0c0.1,0.2,0.3,0.3,0.4,0.5
			c0.3,0.5,0.7,1.2,1.8,2.1c0.8,0.7,1.8,1.4,2.8,1.9c2.8,1.5,5.1,1.9,6.4,2.1c0.5,0.1,0.8,0.1,0.9,0.2l3.8,0l0,0
			c0.1-0.1,0.6-0.1,1-0.2c0.2,0,0.5-0.1,0.6-0.1c0.5-0.1,1-0.2,1.6-0.3c0.9-0.2,2-0.6,2.9-1c2.1-0.9,5.7-3.1,6.4-5.3
			C99.4,57.3,99.3,56.5,99,56.2z"/>
	</g>
	<g>
		<path class="st0" d="M77.2,57.6c2.3,1.1,5,1.6,7.8,1.6c2.8,0,5.6-0.6,8-1.7c3.6-1.7,4.9-3.7,4.8-5c0-0.5-0.2-0.8-0.5-1
			c-0.2-0.1-0.5,0-0.8,0.2c-0.2,0.2-0.3,0.3-0.5,0.5c-0.2,0.2-0.4,0.5-0.7,0.7c-4.9,4-12.5,4.7-18.2,1.7c-1.1-0.6-2.1-1.2-2.8-1.9
			c0,0-0.1-0.1-0.2-0.2c-0.7-0.7-1-1-1.1-1c-0.3-0.1-0.5,0-0.6,0.1c-0.3,0.3-0.4,0.9-0.3,1.4C72.6,54.9,75.1,56.7,77.2,57.6z"/>
	</g>
	<g>
		<path class="st0" d="M77.9,52.3c2.2,1,4.7,1.5,7.1,1.5c2.3,0,4.7-0.5,6.8-1.4c1.8-0.8,4.1-2,4.6-3.9c0.1-0.3,0.1-1-0.2-1.3
			c-0.1-0.1-0.3-0.2-0.6-0.1c-0.2,0-0.5,0.3-0.9,0.7c-0.1,0.1-0.2,0.2-0.3,0.3c-0.7,0.6-1.6,1.2-2.5,1.6c-5.1,2.6-11.7,2-16.1-1.4
			l-1.1-1c-0.2-0.2-0.5-0.2-0.7-0.1c-0.3,0.1-0.4,0.5-0.4,0.9C73.6,48.6,73.9,50.5,77.9,52.3z"/>
	</g>
	<g>
		<path class="st0" d="M78.8,47.3c1.9,0.8,4,1.2,6.2,1.2c2.2,0,4.4-0.4,6.3-1.2c1.5-0.6,3.8-2.1,4-3.6c0.1-0.4,0-0.8-0.3-1
			c-0.2-0.2-0.4-0.2-0.7-0.2c-0.3,0.1-0.4,0.2-0.6,0.4c0,0,0,0.1-0.1,0.1c-0.1,0.1-0.2,0.2-0.3,0.3c0,0-0.1,0.1-0.1,0.1
			c-0.6,0.6-1.3,1-2.2,1.4c-4.2,1.8-11.6,1.5-14.6-1.5c-0.1-0.1-0.1-0.1-0.2-0.2c-0.2-0.3-0.5-0.6-1-0.6c-0.2,0-0.4,0.1-0.5,0.3
			c-0.2,0.3-0.2,0.7-0.1,1.1C75.1,45.3,77.5,46.7,78.8,47.3z"/>
	</g>
	<g>
		<path class="st0" d="M85,43.5C85,43.5,85,43.5,85,43.5c2.2,0,4.2-0.5,5.9-1.4c0.8-0.4,2.4-1.6,2.7-2.9c0.1-0.6,0-1.2-0.5-1.7
			l0-0.1h-0.5l-0.1,0.1l0,0.1c-0.9,1.1-1.4,1.7-3,2.4c-2.5,1.1-6.4,1.1-9,0c-1.4-0.6-2-1.3-2.9-2.4l0-0.1H77l-0.1,0.2
			c-0.2,0.3-0.4,0.7-0.4,1.3c0,0.5,0.3,1,0.6,1.4C78.7,42.6,82.4,43.5,85,43.5z"/>
	</g>
</g>
<g>
	<g>
		<rect x="419.3" y="137.5" width="3.4" height="42"/>
	</g>
</g>
<g>
	<g>
		<path class="st0" d="M79.4,86.3l-0.1,0.3c-0.1,0.4-0.2,0.7-0.3,1l-4.2-15.1h-4.4v1v19h2h1V79.1l4.1,13.4H78h1.9h0.4l4.2-13.2v13.2
			h2h1v-20h-4.1L79.4,86.3z"/>
	</g>
	<g>
		<path class="st0" d="M101,73.5c-1.2-0.8-2.5-1.2-4-1.2c-2.2,0-4.1,0.9-5.6,2.8c-1.5,1.8-2.2,4.4-2.2,7.8c0,2.7,0.7,5,2,6.9
			c1.5,2.1,3.5,3.2,5.9,3.2c2.4,0,4.4-1,5.9-3.1c1.3-1.8,2-4.3,2-7.2c0-2.1-0.3-4-1-5.5C103.1,75.5,102.2,74.3,101,73.5z
			 M102.2,82.5c0,2.5-0.5,4.4-1.5,5.7c-1,1.3-2.2,1.9-3.7,1.9c-1.4,0-2.6-0.6-3.7-1.9c-1-1.3-1.5-3.1-1.5-5.4c0-2.7,0.5-4.7,1.5-6
			c1-1.3,2.2-1.9,3.7-1.9c0.9,0,1.8,0.3,2.6,0.9c0.8,0.6,1.4,1.4,1.8,2.3C101.9,79.4,102.2,80.9,102.2,82.5z"/>
	</g>
	<g>
		<polygon class="st0" points="117.5,73.5 117.5,86.3 109.7,72.5 106.5,72.5 106.5,73.5 106.5,92.5 108.5,92.5 109.5,92.5 
			109.5,78.9 117.3,92.5 117.6,92.5 119.5,92.5 120.5,92.5 120.5,72.5 117.5,72.5 		"/>
	</g>
	<g>
		<path class="st0" d="M134.3,72.8c-0.3,0.8-0.7,1.3-1.4,2l-0.3,0.3c-0.7,0.8-1.7,1.4-2.6,1.9l-0.5,0.3v0.3V80v0.7l0.6-0.2
			c0.9-0.3,1.3-0.6,1.9-1c0.1-0.1,0.3-0.2,0.4-0.3c0.2-0.1,0.4-0.3,0.6-0.4c0.2-0.1,0.3-0.2,0.5-0.3v14.1h2h1v-20h-2.1L134.3,72.8z"
			/>
	</g>
	<g>
		<path class="st0" d="M144.8,89c0.3-0.4,1-1.2,2.2-2.4c1.9-1.9,3.1-3.5,3.8-4.6c0.7-1.2,1-2.5,1-3.8c0-1.5-0.5-2.9-1.4-4
			c-0.9-1.2-2.3-1.8-4.1-1.8c-1.6,0-3,0.5-4,1.6c-1,1-1.6,2.5-1.8,4.5l-0.1,0.5l2.9,0.4v-0.6c0-1.1,0.4-2,0.9-2.6
			c0.5-0.6,1.2-0.8,2-0.8c0.7,0,1.3,0.3,1.8,0.8c0.5,0.5,0.7,1.2,0.7,2.1c0,0.8-0.3,1.6-0.8,2.5c-0.5,1-1.7,2.3-3.5,4.1
			c-1.6,1.6-2.7,2.8-3.3,4c-0.6,1.1-0.9,2.1-0.9,3.2l0,0.5h0.5h9.7h1v-3h-7C144.6,89.3,144.7,89.1,144.8,89L144.8,89z"/>
	</g>
	<g>
		<polygon class="st0" points="154.5,78.5 154.5,81.5 156.5,81.5 157.5,81.5 157.5,77.5 154.5,77.5 		"/>
	</g>
	<g>
		<rect x="154.5" y="89.5" class="st0" width="3" height="3"/>
	</g>
	<g>
		<path class="st0" d="M168.9,82.5c-0.3-0.3-0.7-0.6-1.2-0.8c0.5-0.4,0.9-0.8,1.3-1.4c0.4-0.7,0.6-1.5,0.6-2.5
			c0-1.5-0.5-2.8-1.4-3.8c-0.9-1-2.1-1.5-3.5-1.5c-1.3,0-2.4,0.5-3.3,1.3c-0.9,0.9-1.5,2.2-1.7,3.9l0,0.2l2.4,0.5l0-0.3
			c0.1-1.1,0.4-2,0.9-2.5c0.5-0.5,1-0.8,1.7-0.8c0.7,0,1.2,0.2,1.7,0.7c0.5,0.5,0.7,1.2,0.7,2c0,0.9-0.3,1.6-0.8,2.2
			c-0.6,0.5-1.3,0.8-2.2,0.8l-0.5,0l-0.3,2.7l0.4-0.1c0.5-0.2,1-0.3,1.3-0.3c0.8,0,1.5,0.3,2,1c0.6,0.6,0.8,1.5,0.8,2.6
			c0,1.1-0.3,2.1-0.9,2.8c-0.6,0.7-1.3,1-2.1,1c-1.5,0-2.5-1.2-2.8-3.6l0-0.2l-2.4,0.4l0,0.2c0.1,1.7,0.7,3.1,1.7,4.1
			c1,1,2.2,1.6,3.6,1.6c1.5,0,2.9-0.6,4-1.8c1.1-1.2,1.6-2.7,1.6-4.5c0-0.9-0.1-1.7-0.4-2.4C169.7,83.5,169.3,82.9,168.9,82.5z"/>
	</g>
	<g>
		<path class="st0" d="M181,74.7c-0.9-1.4-2.2-2.2-3.8-2.2c-1.8,0-3.2,0.9-4.1,2.7c-0.9,1.7-1.3,4.2-1.3,7.5c0,3.7,0.5,6.3,1.5,7.8
			c1,1.6,2.3,2.3,3.9,2.3c1.8,0,3.2-0.9,4.1-2.7c0.9-1.7,1.3-4.2,1.3-7.5C182.7,79.1,182.1,76.4,181,74.7z M177.3,90.4
			c-0.9,0-1.5-0.5-2.1-1.5c-0.6-1-0.9-3.1-0.9-6.2c0-3.1,0.3-5.2,0.9-6.2c0.6-1,1.2-1.5,2-1.5c0.9,0,1.6,0.5,2.1,1.5
			c0.6,1,0.9,3.1,0.9,6.2c0,3.1-0.3,5.2-0.9,6.2C178.7,89.9,178.1,90.4,177.3,90.4z"/>
	</g>
</g>
<g>
	<g>
		<path class="st0" d="M393.5,125.2c0.2-0.2,0.9-1,2.2-2.2c1.2-1.1,2-1.9,2.5-2.5c0.7-0.9,1.2-1.8,1.6-2.6c0.3-0.8,0.5-1.8,0.5-2.7
			c0-1.7-0.6-3.1-1.8-4.2c-1.2-1.1-2.8-1.7-4.9-1.7c-1.9,0-3.4,0.5-4.7,1.4c-1.3,1-2,2.6-2.3,4.8l-0.1,0.5l4.7,0.5l0-0.5
			c0.1-1,0.3-1.6,0.7-2c0.4-0.4,0.9-0.6,1.5-0.6c0.7,0,1.1,0.2,1.5,0.5c0.4,0.4,0.5,0.9,0.5,1.6c0,0.6-0.2,1.3-0.7,2
			c-0.4,0.5-1.4,1.6-3,3.1c-2.2,2-3.5,3.4-4.3,4.6c-0.8,1.3-1.2,2.8-1.3,3.7l-0.1,0.6h0.6h12.8h1v-4h-7.2
			C393.4,125.4,393.5,125.3,393.5,125.2z M392.4,126.5c0,0,0.1-0.1,0.1-0.1v0.1H392.4z"/>
	</g>
	<g>
		<path class="st0" d="M408.6,125.2L408.6,125.2c0.2-0.2,0.9-1,2.2-2.2c1.2-1.1,2-1.9,2.5-2.5c0.7-0.9,1.2-1.8,1.6-2.6
			c0.3-0.8,0.5-1.7,0.5-2.7c0-1.7-0.6-3.1-1.8-4.2c-1.2-1.1-2.8-1.7-4.9-1.7c-1.9,0-3.4,0.5-4.7,1.4c-1.3,1-2,2.6-2.3,4.8l-0.1,0.5
			l4.7,0.5l0-0.5c0.1-1,0.3-1.6,0.7-2c0.4-0.4,0.9-0.6,1.5-0.6c0.7,0,1.1,0.2,1.5,0.5c0.4,0.4,0.5,0.9,0.5,1.6c0,0.6-0.2,1.3-0.7,2
			c-0.4,0.5-1.4,1.6-3,3.1c-2.1,2-3.5,3.4-4.3,4.6c-0.8,1.3-1.2,2.8-1.3,3.7l-0.1,0.6h0.6h12.7h1v-4h-7.1
			C408.5,125.4,408.5,125.3,408.6,125.2z M407.5,126.5C407.5,126.5,407.5,126.5,407.5,126.5L407.5,126.5L407.5,126.5z"/>
	</g>
	<g>
		<polygon class="st0" points="418.5,115.5 418.5,119.5 422.5,119.5 423.5,119.5 423.5,114.5 418.5,114.5 		"/>
	</g>
	<g>
		<polygon class="st0" points="418.5,126.5 418.5,129.5 422.5,129.5 423.5,129.5 423.5,125.5 418.5,125.5 		"/>
	</g>
	<g>
		<path class="st0" d="M436.2,118.8c1.6-1,2.4-2.4,2.4-4c0-1.3-0.5-2.4-1.4-3.4c-1.1-1.2-2.7-1.8-4.6-1.8c-1.1,0-2.1,0.2-3,0.6
			c-0.9,0.4-1.6,1-2.1,1.7c-0.5,0.7-0.9,1.7-1.1,2.9l-0.1,0.3l3.9,0.7l0-0.3c0.1-0.8,0.3-1.4,0.7-1.8c0.4-0.4,0.9-0.6,1.5-0.6
			c0.6,0,1,0.2,1.4,0.5c0.3,0.3,0.5,0.8,0.5,1.4c0,0.7-0.2,1.2-0.7,1.7c-0.5,0.4-1.2,0.6-2.1,0.6l-0.2,0l-0.5,3.6l0.4-0.1
			c1.6-0.4,2.5-0.4,3.3,0.5c0.5,0.5,0.7,1.2,0.7,2.1c0,0.9-0.2,1.7-0.7,2.2c-0.5,0.5-1.1,0.8-1.8,0.8c-0.7,0-1.2-0.2-1.7-0.7
			c-0.5-0.4-0.7-1.1-0.9-2l0-0.2l-4.1,0.5l0,0.2c0.2,1.7,0.9,3.1,2.1,4.1c1.2,1,2.7,1.6,4.5,1.6c1.9,0,3.5-0.6,4.8-1.9
			c1.3-1.2,1.9-2.8,1.9-4.5c0-1.2-0.4-2.3-1.1-3.2C437.8,119.6,437.1,119.1,436.2,118.8z"/>
	</g>
	<g>
		<path class="st0" d="M452.4,111.6c-1.1-1.4-2.7-2.1-4.6-2.1c-2,0-3.5,0.7-4.6,2.1c-1.3,1.6-2,4.4-2,8.1c0,3.8,0.6,6.4,1.8,7.9
			c1.2,1.5,2.8,2.3,4.8,2.3c2,0,3.5-0.7,4.6-2.1c1.3-1.6,2-4.4,2-8.1C454.4,116,453.7,113.3,452.4,111.6z M449.5,124.5L449.5,124.5
			c0,0.7-0.4,1.2-0.7,1.4c-0.6,0.5-1.5,0.5-2.1,0c-0.3-0.2-0.6-0.8-0.8-1.6c-0.2-0.8-0.3-2.4-0.3-4.6c0-2.2,0.1-3.9,0.4-4.8
			c0.2-0.7,0.4-1.2,0.7-1.4c0.3-0.3,0.7-0.4,1-0.4c0.4,0,0.7,0.1,1,0.4c0.3,0.3,0.6,0.8,0.8,1.6c0.2,0.8,0.3,2.4,0.3,4.6
			C449.9,122,449.5,123.6,449.5,124.5z"/>
	</g>
</g>
<g>
	<polygon class="st0" points="98.5,362.5 84.5,362.5 84.5,365.5 90.5,365.5 90.5,379.5 92.5,379.5 92.5,365.5 98.5,365.5 	"/>
	<path class="st0" d="M102.7,362.5l-6.1,17h2.7l1.7-5h5.8l1.6,5h2.9l-5.9-17H102.7z M106.1,372.5h-4.2l2.2-5.9L106.1,372.5z"/>
	<path class="st0" d="M125.5,377.5c-0.1-0.3-0.1-0.7-0.1-1.3l-0.1-2.1c0-1-0.2-1.7-0.6-2.1c-0.3-0.3-0.6-0.6-1-0.9
		c0.5-0.3,1-0.8,1.3-1.3c0.4-0.6,0.6-1.5,0.6-2.4c0-1.9-0.8-3.4-2.3-4.1c-0.8-0.4-1.8-0.8-3-0.8h-7.8v17h3v-7h4.5
		c0.8,0,1.4,0,1.7,0.2c0.6,0.3,0.9,0.9,1,1.8l0.1,2.6c0,0.6,0.1,1,0.1,1.3c0,0.2,0.1,0.6,0.2,0.8l0.1,0.3h3.3v-1.2l-0.3-0.1
		C126,378.1,125.6,377.9,125.5,377.5z M123,367.6c0,1-0.2,1.8-0.7,2.2c-0.5,0.4-1.2,0.8-2.2,0.8h-4.6v-5h4.8c0.7,0,1.2,0,1.6,0.2
		C122.6,366,123,366.5,123,367.6z"/>
	<path class="st0" d="M135.5,372.5h4.5c-0.1,2-0.5,2.8-1.3,3.5c-0.9,0.8-2,1.2-3.3,1.2c-1.7,0-3-0.5-3.7-1.7
		c-0.8-1.1-1.2-2.6-1.2-4.4c0-2.1,0.5-3.7,1.4-4.7c0.9-1,2.1-1.6,3.4-1.6c1.1,0,2.1,0.2,2.8,0.7c0.7,0.5,1.2,1.4,1.5,2.5l0,0.4h2.6
		l0-0.5c-0.4-2.1-1.3-3.7-3-4.6c-1.1-0.6-2.4-0.9-3.9-0.9c-2.2,0-4,0.8-5.4,2.3c-1.4,1.6-2.2,3.8-2.2,6.4c0,2.7,0.7,4.8,2.2,6.4
		c1.4,1.2,3,1.9,4.9,1.9c1.5,0,2.7-0.3,3.6-0.8c0.5-0.3,1-0.5,1.6-1.2l0.4,2h1.8v-9h-7V372.5z"/>
	<polygon class="st0" points="148.5,371.5 156.5,371.5 156.5,369.5 148.5,369.5 148.5,365.5 157.5,365.5 157.5,362.5 145.5,362.5 
		145.5,379.5 157.5,379.5 157.5,376.5 148.5,376.5 	"/>
	<polygon class="st0" points="158.5,365.5 164.5,365.5 164.5,379.5 166.5,379.5 166.5,365.5 172.5,365.5 172.5,362.5 158.5,362.5 	
		"/>
	<path class="st0" d="M121.5,336.5H97.4c0.6-1,1.3-2.1,2.2-3.1c1-1.1,3.4-3.5,7.2-7c3.8-3.5,6.4-6.2,7.9-8.1
		c2.2-2.8,3.8-5.5,4.8-8.1c1-2.6,1.5-5.3,1.5-8.2c0-5-1.8-9.3-5.4-12.6c-3.6-3.4-8.5-5.1-14.7-5.1c-5.7,0-10.5,1.5-14.3,4.4
		c-3.8,2.9-6.1,7.8-6.8,14.4l0,0.3l12.5,1.2l0-0.3c0.2-3.4,1.1-5.9,2.5-7.4c1.4-1.5,3.4-2.2,5.8-2.2c2.5,0,4.4,0.7,5.8,2.1
		c1.4,1.4,2.1,3.4,2.1,6c0,2.4-0.8,4.8-2.4,7.2c-1.2,1.8-4.5,5.2-9.9,10.2c-6.7,6.2-11.3,11.3-13.5,15.1c-2.3,3.8-3.7,7.7-4.1,11.9
		l0,0.1h43V336.5z"/>
	<path class="st0" d="M149.3,348.8c6.1,0,11-2.2,14.4-6.5c4.1-5.2,6.2-13.9,6.2-25.7c0-11.9-2.1-20.5-6.2-25.7
		c-3.5-4.4-8.3-6.6-14.4-6.6c-6.1,0-11,2.2-14.4,6.5c-4.1,5.2-6.2,13.8-6.2,25.6c0,12,1.9,20.5,5.7,25.2
		C138.1,346.4,143.1,348.8,149.3,348.8z M143,301c0.6-2.3,1.5-4,2.6-4.8c1.1-0.9,2.3-1.3,3.7-1.3c1.4,0,2.6,0.4,3.7,1.3
		c1.1,0.9,2,2.7,2.7,5.4c0.7,2.7,1.1,7.8,1.1,15.1s-0.4,12.5-1.2,15.6c-0.6,2.3-1.5,4-2.6,4.8c-1.1,0.9-2.3,1.3-3.7,1.3
		c-1.4,0-2.6-0.4-3.7-1.3c-1.1-0.9-2-2.7-2.7-5.4c-0.7-2.7-1.1-7.8-1.1-15.1C141.7,309.3,142.2,304.1,143,301z"/>
	<path class="st0" d="M186.5,281.4c-5,0-9,4-9,9s4,9,9,9s9-4,9-9S191.5,281.4,186.5,281.4z M186.5,295.4c-2.8,0-5-2.2-5-5s2.2-5,5-5
		s5,2.2,5,5S189.3,295.4,186.5,295.4z"/>
</g>
<g>
	<path class="st0" d="M500.7,362.5h-2.7l-6.1,17h2.7l1.7-5h5.8l1.6,5h2.9l-5.8-16.4L500.7,362.5z M501.3,372.5h-4.2l2.2-5.9
		L501.3,372.5z"/>
	<path class="st0" d="M518.9,372.8c-0.2,1-0.5,1.9-0.9,2.5c-0.8,1.1-1.8,1.7-3.3,1.7c-1.6,0-2.8-0.5-3.6-1.6
		c-0.8-1.1-1.2-2.5-1.2-4.3c0-2.2,0.5-3.8,1.3-4.8c0.9-1,2-1.5,3.5-1.5c1.2,0,2.1,0.3,2.7,0.8c0.6,0.6,1.1,1.5,1.3,2.5l0,0.4h2.5
		l0-0.5c-0.1-1.4-0.8-2.7-1.9-3.8c-1.1-1.1-2.7-1.7-4.8-1.7c-2.4,0-4.3,0.8-5.6,2.5c-1.2,1.5-1.9,3.5-1.9,5.8c0,3.1,0.8,5.4,2.5,7
		c1.3,1.1,2.9,1.7,4.7,1.7c2.2,0,3.9-0.7,5.2-2.1c1.1-1.2,1.7-2.8,1.9-4.5l0-0.5h-2.6L518.9,372.8z"/>
	<polygon class="st0" points="522.5,365.5 527.5,365.5 527.5,379.5 530.5,379.5 530.5,365.5 535.5,365.5 535.5,362.5 522.5,362.5 	
		"/>
	<path class="st0" d="M547.5,372.8c0,1.1-0.2,2-0.5,2.6c-0.6,1.2-1.8,1.7-3.5,1.7c-1.4,0-2.6-0.5-3.2-1.6c-0.4-0.7-0.8-1.6-0.8-2.7
		v-10.4h-2v9.5c0,2,0.1,3.5,0.7,4.6c1,2,2.8,3,5.6,3c2.8,0,4.8-1,5.8-3c0.5-1.1,1-2.6,1-4.6v-9.5h-3V372.8z"/>
	<path class="st0" d="M560.3,362.5h-2.7l-6.1,17h2.7l1.7-5h5.8l1.6,5h2.9l-5.8-16.4L560.3,362.5z M560.9,372.5h-4.2l2.2-5.9
		L560.9,372.5z"/>
	<polygon class="st0" points="570.5,362.5 567.5,362.5 567.5,379.5 577.5,379.5 577.5,376.5 570.5,376.5 	"/>
	<path class="st0" d="M495.5,348.5h13v-63H498l-0.1,0.1c-1.3,3.8-3.9,7-7.5,9.9c-3.6,2.8-6.8,4.8-9.9,5.8l0,0v11.4l0.1-0.1
		c5.8-1.9,10.9-4.9,14.9-8.8V348.5z"/>
	<path class="st0" d="M556.8,314.6c2.5-1.2,4.5-2.9,6-5c1.5-2.3,2.3-5,2.3-7.9c0-4.7-1.7-8.7-5-11.8c-3.3-3.1-8-4.6-14-4.6
		c-6,0-10.8,1.6-14.1,4.6c-3.3,3.1-5,7-5,11.8c0,2.8,0.7,5.4,2.2,7.7c1.4,2.2,3.5,4,6.4,5.3c-3.4,1.5-5.9,3.7-7.5,6.4
		c-1.7,2.9-2.6,6-2.6,9.5c0,6.2,2.3,11.2,6.8,14.7c3.8,3,8.7,4.5,14.4,4.5c6.2,0,11.2-1.9,14.9-5.5c3.7-3.7,5.6-8.5,5.6-14.3
		c0-3.5-0.9-6.7-2.8-9.4C562.6,318.1,560.1,316.1,556.8,314.6z M551.3,308c-1.3,1.3-3.1,2-5.3,2c-2.2,0-3.9-0.7-5.2-1.9
		c-1.3-1.3-2-3.1-2-5.4c0-2.2,0.7-3.9,2-5.3s3.1-2,5.3-2c2.1,0,3.9,0.7,5.2,2c1.3,1.3,2,3.1,2,5.2
		C553.3,304.8,552.6,306.7,551.3,308z M539.9,323c1.4-1.9,3.5-2.9,6.4-2.9c2.5,0,4.5,0.9,6.1,2.6c1.6,1.7,2.4,4,2.4,6.9
		c0,3.3-0.8,5.8-2.4,7.5c-1.6,1.7-3.6,2.6-6,2.6c-2.5,0-4.5-0.9-6.2-2.7c-1.6-1.8-2.5-4.3-2.5-7.6
		C537.7,327.1,538.5,324.9,539.9,323z"/>
	<path class="st0" d="M583.4,282.4c-5,0-9,4-9,9s4,9,9,9s9-4,9-9S588.3,282.4,583.4,282.4z M583.4,296.4c-2.8,0-5-2.2-5-5s2.2-5,5-5
		s5,2.2,5,5S586.1,296.4,583.4,296.4z"/>
</g>
<g>
	<g>
		<path d="M252.9,151.8c-0.4-0.3-0.9-0.5-1.4-0.5s-1,0.2-1.4,0.5c-0.4,0.3-0.7,0.9-0.9,1.8c-0.3,1.1-0.4,3-0.4,5.6s0.1,4.4,0.4,5.4
			c0.3,1,0.6,1.6,1,2c0.4,0.3,0.9,0.5,1.4,0.5s1-0.2,1.4-0.5c0.4-0.3,0.7-0.9,0.9-1.8c0.3-1.1,0.4-3,0.4-5.6s-0.1-4.4-0.4-5.4
			C253.6,152.8,253.3,152.2,252.9,151.8z"/>
	</g>
	<g>
		<circle cx="264.8" cy="149.9" r="1.8"/>
	</g>
	<g>
		<path d="M70.5,137.5v42h345v-42H70.5z M241.5,170.5h-15.3c0.2-2,0.7-3,1.5-4.4c0.8-1.4,2.4-3.2,4.8-5.5c1.9-1.8,3.1-3,3.6-3.7
			c0.6-0.9,0.9-1.8,0.9-2.6c0-1-0.3-1.7-0.8-2.2c-0.5-0.5-1.2-0.8-2.1-0.8c-0.9,0-1.6,0.3-2.1,0.8s-0.8,1.4-0.9,2.7l-4.3-0.4
			c0.3-2.4,1.1-4.1,2.4-5.1c1.3-1,3-1.5,5.1-1.5c2.2,0,4,0.6,5.2,1.8c1.3,1.2,1.9,2.7,1.9,4.5c0,1-0.2,2-0.5,2.9
			c-0.4,0.9-0.9,1.9-1.7,2.9c-0.5,0.7-1.5,1.6-2.8,2.9c-1.4,1.2-2.2,2.1-2.6,2.6c-0.4,0.4-0.7,0.3-0.9,1.3h8.8V170.5z M256.6,168.4
			c-1.2,1.5-2.9,2.3-5.1,2.3c-2.2,0-3.9-0.8-5.3-2.5s-2-4.7-2-9c0-4.2,0.7-7.3,2.2-9.1c1.2-1.5,2.9-2.3,5.1-2.3s3.9,0.8,5.1,2.3
			c1.5,1.8,2.2,4.9,2.2,9.1C258.8,163.5,258,166.5,256.6,168.4z M264.8,153.1c-1.8,0-3.2-1.4-3.2-3.2s1.4-3.2,3.2-3.2
			s3.2,1.4,3.2,3.2S266.6,153.1,264.8,153.1z"/>
	</g>
</g>
<g>
	<g>
		<circle cx="530" cy="149.9" r="1.8"/>
	</g>
	<g>
		<path d="M517.1,158.9c-0.8,0-1.5,0.3-2.1,1c-0.6,0.6-0.9,1.6-0.9,2.9c0,1.4,0.3,2.5,1,3.2c0.6,0.8,1.4,1.1,2.2,1.1
			c0.8,0,1.5-0.3,2-0.9c0.5-0.6,0.8-1.6,0.8-3.1c0-1.5-0.3-2.5-0.9-3.2S518,158.9,517.1,158.9z"/>
	</g>
	<g>
		<path d="M426.5,137.5v42h168v-42H426.5z M502.5,170.5h-4v-16.4c-1,1.5-3,2.6-5,3.3v-3.9c1-0.4,2.1-1.2,3.4-2.2
			c1.3-1,2-1.7,2.5-3.7h3.1V170.5z M522.3,168.6c-1.3,1.4-3.1,2.1-5.2,2.1c-2.3,0-4.1-0.9-5.6-2.6c-1.5-1.8-2.2-4.6-2.2-8.7
			c0-4.1,0.8-7.1,2.3-8.9c1.5-1.8,3.5-2.7,5.9-2.7c1.7,0,3.1,0.5,4.2,1.4c1.1,1,1.8,2.3,2.1,4.2l-4.2,0.5c-0.1-0.9-0.4-1.5-0.8-1.9
			c-0.4-0.4-1-0.6-1.7-0.6c-0.9,0-1.7,0.4-2.3,1.2c-0.6,0.8-1,2.5-1.2,5.1c1.1-1.3,2.4-1.9,4-1.9c1.8,0,3.3,0.7,4.6,2.1
			c1.3,1.4,1.9,3.1,1.9,5.3C524.4,165.4,523.7,167.2,522.3,168.6z M530,153.1c-1.8,0-3.2-1.4-3.2-3.2s1.4-3.2,3.2-3.2
			s3.2,1.4,3.2,3.2S531.8,153.1,530,153.1z"/>
	</g>
</g>
<g>
	<g>
		<path d="M443.3,82.8c0-3.3,0.7-5.9,2.2-7.6c1.5-1.8,3.3-2.7,5.4-2.7c1.4,0,2.7,0.4,3.8,1.2s2.1,2,2.8,3.5s1,3.3,1,5.4
			c0,2.9-0.7,5.2-2,7c-1.4,2-3.3,3-5.7,3c-2.3,0-4.2-1-5.7-3.1C444,87.7,443.3,85.4,443.3,82.8z M445.5,82.9c0,2.4,0.5,4.3,1.6,5.6
			c1.1,1.3,2.3,2,3.8,2c1.5,0,2.8-0.7,3.9-2s1.6-3.3,1.6-5.9c0-1.7-0.3-3.2-0.8-4.5c-0.4-1-1-1.8-1.9-2.4s-1.7-0.9-2.7-0.9
			c-1.6,0-2.9,0.7-3.9,2S445.5,80.1,445.5,82.9z"/>
		<path class="st0" d="M451,92.9c-2.4,0-4.4-1.1-5.9-3.2c-1.3-1.9-2-4.2-2-6.9c0-3.4,0.8-6,2.2-7.8c1.5-1.8,3.4-2.8,5.6-2.8
			c1.4,0,2.8,0.4,4,1.2c1.2,0.8,2.1,2,2.8,3.6c0.7,1.5,1,3.4,1,5.5c0,2.9-0.7,5.3-2,7.2C455.3,91.8,453.4,92.9,451,92.9z M451,72.8
			c-2.1,0-3.9,0.9-5.3,2.6c-1.4,1.7-2.1,4.2-2.1,7.5c0,2.6,0.6,4.8,1.9,6.6c1.4,2,3.2,3,5.5,3c2.2,0,4.1-1,5.5-2.9
			c1.3-1.8,1.9-4.1,1.9-6.9c0-2-0.3-3.8-1-5.3c-0.7-1.5-1.5-2.6-2.7-3.4C453.6,73.2,452.3,72.8,451,72.8z M450.9,90.7
			c-1.6,0-2.9-0.7-4-2.1c-1.1-1.4-1.6-3.3-1.6-5.7c0-2.8,0.5-4.9,1.6-6.3c1.1-1.4,2.5-2.1,4.1-2.1c1,0,2,0.3,2.9,1
			c0.9,0.6,1.5,1.5,2,2.5c0.5,1.3,0.8,2.9,0.8,4.6c0,2.6-0.5,4.7-1.6,6C453.9,90,452.6,90.7,450.9,90.7z M451,75
			c-1.5,0-2.7,0.6-3.7,1.9c-1,1.3-1.5,3.3-1.5,6c0,2.3,0.5,4.1,1.5,5.4c1,1.3,2.2,1.9,3.7,1.9c1.5,0,2.7-0.6,3.7-1.9
			c1-1.3,1.5-3.2,1.5-5.7c0-1.6-0.3-3.1-0.8-4.4c-0.4-1-1-1.7-1.8-2.3C452.8,75.3,451.9,75,451,75z"/>
	</g>
	<g>
		<path d="M461.4,92.3V72.9h10.7v2.3h-8.6v6h7.5v2.3h-7.5v8.8H461.4z"/>
		<path class="st0" d="M463.8,92.5h-2.6V72.6h11.2v2.8h-8.6v5.5h7.5v2.8h-7.5V92.5z M461.6,92h1.6v-8.8h7.5v-1.8h-7.5v-6.5h8.6v-1.8
			h-10.2V92z"/>
	</g>
	<g>
		<path d="M475,92.3V72.9h10.7v2.3h-8.6v6h7.5v2.3h-7.5v8.8H475z"/>
		<path class="st0" d="M477.3,92.5h-2.6V72.6H486v2.8h-8.6v5.5h7.5v2.8h-7.5V92.5z M475.2,92h1.6v-8.8h7.5v-1.8h-7.5v-6.5h8.6v-1.8
			h-10.2V92z"/>
	</g>
</g>
<g>
	<g>
		<path d="M550.7,86l2-0.2c0.1,1.1,0.3,1.9,0.7,2.5c0.4,0.6,0.9,1.1,1.6,1.4c0.7,0.4,1.5,0.5,2.4,0.5c1.3,0,2.2-0.3,2.9-0.9
			c0.7-0.6,1-1.4,1-2.4c0-0.6-0.1-1.1-0.4-1.5s-0.6-0.8-1.1-1.1c-0.5-0.3-1.6-0.7-3.3-1.2c-1.5-0.4-2.6-0.9-3.2-1.3
			c-0.6-0.5-1.1-1-1.5-1.7s-0.5-1.5-0.5-2.4c0-1.6,0.5-2.9,1.5-3.9c1-1,2.4-1.5,4.1-1.5c1.2,0,2.2,0.2,3.1,0.7
			c0.9,0.5,1.6,1.1,2.1,2c0.5,0.9,0.8,1.9,0.8,3.1l-2,0.2c-0.1-1.3-0.5-2.2-1.1-2.8c-0.6-0.6-1.6-0.9-2.7-0.9
			c-1.2,0-2.1,0.3-2.7,0.8c-0.6,0.5-0.9,1.2-0.9,2.1c0,0.8,0.2,1.4,0.7,1.8c0.5,0.4,1.5,0.9,3.1,1.3c1.6,0.4,2.7,0.8,3.3,1.1
			c1,0.5,1.7,1.1,2.2,2c0.5,0.8,0.7,1.8,0.7,2.9c0,1.1-0.3,2.1-0.8,3c-0.5,0.9-1.2,1.6-2.1,2.1s-2,0.7-3.2,0.7c-2,0-3.5-0.6-4.7-1.8
			C551.4,89.7,550.8,88.1,550.7,86z"/>
		<path class="st0" d="M557.2,92.9c-2,0-3.7-0.6-4.9-1.8c-1.2-1.2-1.8-2.9-1.9-5l0-0.2l2.5-0.3l0,0.3c0.1,1,0.3,1.8,0.7,2.4
			c0.3,0.6,0.9,1,1.5,1.3c0.7,0.3,1.4,0.5,2.2,0.5c1.2,0,2.1-0.3,2.8-0.9c0.6-0.6,1-1.3,1-2.2c0-0.5-0.1-1-0.3-1.4
			c-0.2-0.4-0.6-0.7-1-1c-0.5-0.3-1.6-0.6-3.2-1.1c-1.5-0.5-2.6-0.9-3.3-1.4c-0.7-0.5-1.2-1.1-1.6-1.8s-0.6-1.6-0.6-2.5
			c0-1.6,0.5-3,1.6-4c1.1-1,2.5-1.6,4.3-1.6c1.2,0,2.3,0.2,3.2,0.7c0.9,0.5,1.7,1.2,2.2,2.1c0.5,0.9,0.8,2,0.8,3.2l0,0.2l-2.5,0.2
			l0-0.3c-0.1-1.2-0.5-2.1-1.1-2.6c-0.6-0.6-1.5-0.8-2.6-0.8c-1.1,0-2,0.2-2.6,0.7c-0.6,0.5-0.9,1.1-0.9,1.9c0,0.7,0.2,1.3,0.6,1.6
			c0.4,0.4,1.4,0.8,3,1.3c1.6,0.4,2.7,0.8,3.4,1.1c1,0.5,1.8,1.2,2.3,2c0.5,0.8,0.8,1.9,0.8,3c0,1.2-0.3,2.2-0.8,3.2
			c-0.5,1-1.3,1.7-2.2,2.2C559.7,92.6,558.5,92.9,557.2,92.9z M551,86.3c0.1,1.8,0.7,3.3,1.7,4.4c1.1,1.1,2.6,1.7,4.5,1.7
			c1.2,0,2.3-0.2,3.1-0.7c0.9-0.5,1.5-1.1,2-2c0.5-0.9,0.7-1.9,0.7-2.9c0-1.1-0.2-2-0.7-2.8c-0.5-0.8-1.2-1.4-2.1-1.9
			c-0.6-0.3-1.7-0.7-3.3-1.1c-1.7-0.5-2.7-0.9-3.2-1.4c-0.5-0.5-0.8-1.2-0.8-2c0-0.9,0.3-1.7,1-2.3c0.7-0.6,1.6-0.9,2.9-0.9
			c1.2,0,2.2,0.3,2.9,1c0.6,0.6,1,1.5,1.2,2.7l1.5-0.1c-0.1-1-0.3-2-0.7-2.7c-0.5-0.8-1.1-1.5-2-1.9c-0.8-0.4-1.9-0.7-3-0.7
			c-1.6,0-3,0.5-3.9,1.4c-1,0.9-1.4,2.2-1.4,3.7c0,0.8,0.2,1.6,0.5,2.2c0.3,0.7,0.8,1.2,1.4,1.6c0.6,0.4,1.7,0.9,3.1,1.3
			c1.7,0.5,2.8,0.9,3.3,1.2c0.5,0.3,1,0.7,1.2,1.1c0.3,0.5,0.4,1,0.4,1.6c0,1-0.4,1.9-1.1,2.6c-0.7,0.7-1.8,1-3.1,1
			c-0.9,0-1.7-0.2-2.5-0.6c-0.7-0.4-1.3-0.9-1.7-1.5c-0.4-0.6-0.6-1.4-0.7-2.4L551,86.3z"/>
	</g>
	<g>
		<path d="M577.6,85.5l2.1,0.6c-0.5,2.2-1.3,3.8-2.5,4.9s-2.6,1.6-4.3,1.6c-1.5,0-2.7-0.4-3.8-1.1c-1-0.7-1.9-1.9-2.6-3.5
			s-1-3.5-1-5.6c0-2.1,0.3-3.9,1-5.4c0.7-1.5,1.6-2.6,2.7-3.4c1.1-0.8,2.4-1.1,3.8-1.1c1.5,0,2.9,0.5,4,1.4s1.9,2.4,2.3,4.2
			l-2.1,0.6c-0.7-2.7-2.1-4-4.3-4c-1.1,0-2,0.3-2.8,0.8c-0.8,0.5-1.4,1.4-1.9,2.5c-0.5,1.1-0.7,2.6-0.7,4.4c0,2.7,0.5,4.7,1.4,6
			c0.9,1.3,2.2,2,3.7,2c1.1,0,2.1-0.4,3-1.2C576.7,88.4,577.3,87.1,577.6,85.5z"/>
		<path class="st0" d="M573,92.9c-1.5,0-2.8-0.4-3.9-1.1c-1.1-0.7-2-1.9-2.7-3.6c-0.7-1.6-1-3.5-1-5.7c0-2.2,0.3-4,1-5.5
			c0.7-1.5,1.6-2.7,2.8-3.5c1.2-0.8,2.5-1.2,4-1.2c1.6,0,3,0.5,4.1,1.5c1.1,1,1.9,2.4,2.4,4.3l0.1,0.2l-2.5,0.7l-0.1-0.2
			c-0.7-2.6-2-3.9-4-3.9c-1,0-1.9,0.3-2.6,0.8c-0.7,0.5-1.3,1.3-1.8,2.4c-0.4,1.1-0.7,2.6-0.7,4.3c0,2.6,0.5,4.6,1.4,5.8
			c0.9,1.3,2.1,1.9,3.5,1.9c1.1,0,2-0.4,2.8-1.2c0.8-0.8,1.3-2,1.6-3.6l0-0.3l2.6,0.8l0,0.2c-0.5,2.2-1.3,3.9-2.5,5
			C576.2,92.3,574.7,92.9,573,92.9z M573.1,72.8c-1.3,0-2.6,0.4-3.7,1.1c-1.1,0.7-2,1.8-2.6,3.2c-0.6,1.4-1,3.2-1,5.3
			c0,2.1,0.3,4,1,5.5c0.6,1.5,1.5,2.7,2.5,3.4c1,0.7,2.2,1,3.6,1c1.6,0,3-0.5,4.1-1.5c1.1-1,1.9-2.5,2.3-4.5l-1.6-0.5
			c-0.3,1.6-0.9,2.8-1.7,3.6c-0.9,0.9-1.9,1.3-3.1,1.3c-1.6,0-3-0.7-3.9-2.1c-1-1.4-1.5-3.4-1.5-6.1c0-1.8,0.2-3.3,0.7-4.5
			c0.5-1.2,1.1-2.1,2-2.7c0.8-0.6,1.8-0.9,2.9-0.9c2.2,0,3.7,1.3,4.4,4l1.6-0.5c-0.4-1.7-1.2-3-2.2-3.8
			C575.9,73.2,574.6,72.8,573.1,72.8z"/>
	</g>
	<g>
		<path d="M582.3,92.3V72.9h2.1v8h8.3v-8h2.1v19.4h-2.1v-9.2h-8.3v9.2H582.3z"/>
		<path class="st0" d="M595.1,92.5h-2.6v-9.2h-7.8v9.2h-2.6V72.6h2.6v8h7.8v-8h2.6V92.5z M593,92h1.6V73.1H593v8h-8.8v-8h-1.6V92
			h1.6v-9.2h8.8V92z"/>
	</g>
</g>
<g>
	<g>
		<path class="st0" d="M417.5,98c-8.8,0-15.9-7.1-15.9-15.9s7.1-15.9,15.9-15.9s15.9,7.1,15.9,15.9S426.3,98,417.5,98z M417.5,68.1
			c-7.7,0-13.9,6.2-13.9,13.9S409.8,96,417.5,96s13.9-6.2,13.9-13.9S425.2,68.1,417.5,68.1z"/>
	</g>
</g>
<g>
	<g>
		<path class="st0" d="M526.8,98c-8.8,0-15.9-7.1-15.9-15.9s7.1-15.9,15.9-15.9s15.9,7.1,15.9,15.9S535.5,98,526.8,98z M526.8,68.1
			c-7.7,0-13.9,6.2-13.9,13.9S519.1,96,526.8,96s13.9-6.2,13.9-13.9S534.4,68.1,526.8,68.1z"/>
	</g>
</g>
<g>
	<g>
		<path d="M418.1,75.2c-0.8,0-1.5,0.1-2-0.2c-0.4-0.2-0.9-0.8-0.8-1.2c0-0.4,0.6-1.1,1-1.1c2.1-0.1,4.1,0,6.2,0.1c0.4,0,1,0.7,1,1
			c0,0.4-0.6,0.8-0.9,1.2c0,0-0.2,0-0.2,0c-0.7,0-1.6-0.3-1.8,0.7c-0.2,1.1,0.8,1.5,1.6,1.9c0.7,0.3,1.5,0.4,2.3,0.5
			c1.4,0.3,1.7,0.9,1.7,2.7c-0.1,1.5-0.3,1.7-1.8,2c-0.9,0.2-1.9,0.4-2.7,0.8c-1.6,0.8-3,0.9-4.5-0.1c-1.1-0.7-2.1-0.8-3.2,0.2
			c-0.7,0.5-1.9,0.5-2.9,0.4c-0.4,0-0.9-0.6-1-1.1c-0.7-2.3,0.6-4.4,3-4.8c0.8-0.1,1.6-0.1,2.4-0.2C417.1,78,417.9,77.1,418.1,75.2z
			"/>
	</g>
</g>
<g>
	<g>
		<path d="M412.3,86.2c0.4,1,1,1.9,1.3,2.9c0.2,0.9-0.1,1.8-1,2.2c-0.6,0.2-1.4,0.1-1.9-0.2c-0.8-0.5-1-1.5-0.6-2.3
			c0.4-0.9,1-1.7,1.5-2.6C411.8,86.2,412,86.2,412.3,86.2z"/>
	</g>
</g>
<g>
	<g>
		<path d="M526.5,88.8c1.8,0,3.5,0,5.3,0c0.7,0,1.6,0,1.6,1c0.1,1.1-0.8,1.3-1.6,1.3c-3.6,0-7.2,0-10.8,0c-0.8,0-1.5-0.3-1.5-1.2
			c0-1,0.8-1.1,1.5-1.1C522.8,88.8,524.6,88.8,526.5,88.8z"/>
	</g>
</g>
<g>
	<g>
		<path d="M518,83c0.5-1.3,0.7-2.5,1.3-3.5c0.8-1.5,1.1-2.9,0.5-4.6c-0.1-0.4-0.3-0.8-0.3-1.1c0-0.3,0.3-0.8,0.5-0.9
			c0.3-0.1,0.8,0.1,1,0.3c1,1.5,1.7,3.1,1,4.9c-0.3,0.8-0.6,1.6-1.1,2.4c-0.8,1.3-1,2.6-0.2,4.1c0.2,0.3,0.2,0.8,0.2,1.1
			c0,0.3-0.2,0.7-0.4,0.8c-0.3,0.1-0.9,0-1.1-0.2C519,85.2,518.5,84.1,518,83z"/>
	</g>
</g>
<g>
	<g>
		<path d="M532,72.7c2,1.1,2.8,3,2.3,5c-0.1,0.6-0.4,1.2-0.7,1.8c-0.9,1.7-1.3,3.4-0.7,5.3c0.2,0.5,0,1.2,0,1.8
			c-2-0.8-3.1-3.1-2.4-5.1c0.2-0.5,0.4-1,0.7-1.5c0.9-1.8,1.7-3.6,0.6-5.6C531.7,73.9,531.9,73.4,532,72.7z"/>
	</g>
</g>
<g>
	<g>
		<path d="M526.5,76.7c-0.4,1.2-0.7,2.3-1.2,3.3c-0.8,1.6-1.1,3.2-0.3,4.8c0.1,0.3,0.2,0.6,0.2,0.9c0,0.7-0.6,1.1-1.1,0.7
			c-0.6-0.5-1.1-1.2-1.3-1.9c-0.4-1.7-0.4-3.5,0.5-5.1c0.9-1.5,1.3-3.1,0.6-4.8c-0.1-0.3-0.2-0.6-0.1-0.9c0-0.3,0.3-0.7,0.4-0.7
			c0.3-0.1,0.9,0.1,1,0.3C525.7,74.4,526.1,75.6,526.5,76.7z"/>
	</g>
</g>
<g>
	<g>
		<path d="M528.7,86.5c-1,0.3-1.4-0.5-1.7-1.2c-0.8-1.8-0.8-3.6,0.1-5.3c1-1.9,1.7-3.7,0.6-5.9c-0.1-0.3,0.3-0.8,0.4-1.2
			c0.4,0.2,1,0.2,1.2,0.5c1.1,1.7,1.5,3.7,0.5,5.4c-1.2,2.2-1.9,4.4-0.8,6.8c0.1,0.1,0,0.3-0.1,0.5
			C528.9,86.2,528.8,86.3,528.7,86.5z"/>
	</g>
</g>
<g>
	<g>
		<path d="M135.6,536.5c-2.7-2.7-6.5-4.4-10.6-4.4h-18.8l6.3-6c0.8-0.8,0.9-2.2,0.1-3c-0.8-0.9-2.2-0.9-3-0.1l-11.7,11.3l11.7,11.6
			c0.8,0.9,2.2,0.9,3,0c0.8-0.8,0.8-2.2,0-3l-6.5-6.5H125c2.9,0,5.6,1.2,7.5,3.1c1.9,1.9,3.1,4.6,3.1,7.5c0,2.9-1.2,5.6-3.1,7.5
			c-1.9,1.9-4.6,3.1-7.5,3.1h-17.6c-1.2,0-2.1,0.9-2.1,2.1c0,1.2,0.9,2.1,2.1,2.1H125c4.1,0,7.9-1.7,10.6-4.4
			c2.7-2.7,4.4-6.4,4.4-10.6C139.9,543,138.3,539.3,135.6,536.5z"/>
	</g>
</g>
<g>
	<g>
		<g>
			<path d="M312.1,523.2c0.9,0,1.7,0.3,2.3,0.9c0.6,0.6,0.9,1.4,0.9,2.3c0,0.9-0.3,1.7-0.9,2.2c-0.6,0.6-1.4,0.9-2.3,0.9
				c-0.9,0-1.7-0.3-2.2-0.9c-0.6-0.6-0.9-1.4-0.9-2.2c0-0.9,0.4-1.7,0.9-2.3C310.5,523.5,311.3,523.2,312.1,523.2z"/>
		</g>
	</g>
	<g>
		<g>
			<path d="M352.4,523.2c0.9,0,1.7,0.3,2.2,0.9c0.6,0.6,0.9,1.4,0.9,2.3c0,0.9-0.4,1.7-0.9,2.2c-0.6,0.6-1.3,0.9-2.2,0.9h-29
				c-0.9,0-1.7-0.3-2.3-0.9c-0.6-0.6-0.9-1.4-0.9-2.2c0-0.9,0.3-1.7,0.9-2.3c0.6-0.6,1.4-0.9,2.3-0.9H352.4z"/>
		</g>
	</g>
	<g>
		<g>
			<path d="M312.1,537.2c0.9,0,1.7,0.3,2.3,0.9c0.6,0.6,0.9,1.4,0.9,2.3c0,0.9-0.3,1.7-0.9,2.2c-0.6,0.6-1.4,0.9-2.3,0.9
				c-0.9,0-1.7-0.4-2.2-0.9c-0.6-0.6-0.9-1.4-0.9-2.2c0-0.9,0.4-1.7,0.9-2.3C310.5,537.5,311.3,537.2,312.1,537.2z"/>
		</g>
	</g>
	<g>
		<g>
			<path d="M352.4,537.2c0.9,0,1.7,0.3,2.2,0.9c0.6,0.6,0.9,1.4,0.9,2.3c0,0.9-0.4,1.7-0.9,2.2c-0.6,0.6-1.3,0.9-2.2,0.9h-29
				c-0.9,0-1.7-0.4-2.3-0.9c-0.6-0.6-0.9-1.4-0.9-2.2c0-0.9,0.3-1.7,0.9-2.3c0.6-0.6,1.4-0.9,2.3-0.9H352.4z"/>
		</g>
	</g>
	<g>
		<g>
			<path d="M312.1,551.1c0.9,0,1.7,0.4,2.3,0.9c0.6,0.6,0.9,1.4,0.9,2.2c0,0.9-0.3,1.7-0.9,2.3c-0.6,0.6-1.4,0.9-2.3,0.9
				c-0.9,0-1.7-0.3-2.2-0.9c-0.6-0.6-0.9-1.4-0.9-2.3c0-0.9,0.4-1.7,0.9-2.2C310.5,551.5,311.3,551.1,312.1,551.1z"/>
		</g>
	</g>
	<g>
		<g>
			<path d="M352.4,551.1c0.9,0,1.7,0.4,2.2,0.9c0.6,0.6,0.9,1.4,0.9,2.2c0,0.9-0.4,1.7-0.9,2.3c-0.6,0.6-1.3,0.9-2.2,0.9h-29
				c-0.9,0-1.7-0.3-2.3-0.9c-0.6-0.6-0.9-1.4-0.9-2.3c0-0.9,0.3-1.7,0.9-2.2c0.6-0.6,1.4-0.9,2.3-0.9H352.4z"/>
		</g>
	</g>
</g>
<g>
	<g>
		<path d="M526.4,543.4c-0.8-0.8-0.8-2.2,0-3c0.9-0.8,2.2-0.8,3.1,0l12.3,12.3l26-26.4c0.8-0.9,2.2-0.9,3,0c0.8,0.8,0.9,2.2,0,3
			l-29.1,29.6L526.4,543.4z"/>
	</g>
</g>
<g>
	<path class="st0" d="M117.9,496.7c-24,0-43.5,19.5-43.5,43.5s19.5,43.5,43.5,43.5s43.5-19.5,43.5-43.5S141.9,496.7,117.9,496.7z
		 M117.9,580.7c-22.3,0-40.5-18.2-40.5-40.5s18.2-40.5,40.5-40.5s40.5,18.2,40.5,40.5S140.2,580.7,117.9,580.7z"/>
	<path class="st0" d="M117.9,500.8c-21.7,0-39.4,17.7-39.4,39.4s17.7,39.4,39.4,39.4c21.7,0,39.4-17.7,39.4-39.4
		S139.6,500.8,117.9,500.8z M117.9,578.5c-21.2,0-38.4-17.2-38.4-38.4s17.2-38.4,38.4-38.4s38.4,17.2,38.4,38.4
		S139.1,578.5,117.9,578.5z"/>
</g>
<g>
	<path class="st0" d="M333.3,496.7c-24,0-43.5,19.5-43.5,43.5s19.5,43.5,43.5,43.5c24,0,43.5-19.5,43.5-43.5
		S357.2,496.7,333.3,496.7z M333.3,580.7c-22.3,0-40.5-18.2-40.5-40.5s18.2-40.5,40.5-40.5c22.3,0,40.5,18.2,40.5,40.5
		S355.6,580.7,333.3,580.7z"/>
	<path class="st0" d="M333.3,500.8c-21.7,0-39.4,17.7-39.4,39.4s17.7,39.4,39.4,39.4s39.4-17.7,39.4-39.4S355,500.8,333.3,500.8z
		 M333.3,578.5c-21.2,0-38.4-17.2-38.4-38.4s17.2-38.4,38.4-38.4s38.4,17.2,38.4,38.4S354.4,578.5,333.3,578.5z"/>
</g>
<g>
	<path class="st0" d="M548.6,496.7c-24,0-43.5,19.5-43.5,43.5s19.5,43.5,43.5,43.5s43.5-19.5,43.5-43.5S572.6,496.7,548.6,496.7z
		 M548.6,580.7c-22.3,0-40.5-18.2-40.5-40.5s18.2-40.5,40.5-40.5s40.5,18.2,40.5,40.5S570.9,580.7,548.6,580.7z"/>
	<path class="st0" d="M548.6,500.8c-21.7,0-39.4,17.7-39.4,39.4s17.7,39.4,39.4,39.4s39.4-17.7,39.4-39.4S570.3,500.8,548.6,500.8z
		 M548.6,578.5c-21.2,0-38.4-17.2-38.4-38.4s17.2-38.4,38.4-38.4c21.2,0,38.4,17.2,38.4,38.4S569.7,578.5,548.6,578.5z"/>
</g>
</svg>
