<?xml version="1.0" encoding="utf-8"?>
<!-- Generator: Adobe Illustrator 20.0.0, SVG Export Plug-In . SVG Version: 6.00 Build 0)  -->
<svg version="1.1" id="Layer_1" xmlns="http://www.w3.org/2000/svg" xmlns:xlink="http://www.w3.org/1999/xlink" x="0px" y="0px"
	 viewBox="0 0 245 80.6" style="enable-background:new 0 0 245 80.6;" xml:space="preserve">
<style type="text/css">
	.st0{fill:#020204;}
</style>
<g>
	<path class="st0" d="M140.4,32.3c-2.3-4-6.2-6.3-12-6.3c-8.7-0.1-10.5,4.9-12,6.2l-0.1-28h-9.9l0.1,62.4l9.8-0.1
		c0.3-2.6,0.1-7.2,0.1-10c0-9.9-1.8-20.8,8.2-21.6c7-0.6,8.1,5.5,8.1,11.8c0,6.5-0.2,13.3,0,19.8c1.6,0.2,3.4,0.1,5.1,0.1l4.7-0.2
		c0.3-1.4,0.1-15.5,0.1-18.2C142.6,42.2,143,36.8,140.4,32.3z"/>
	<path class="st0" d="M245,44.3c-0.5-0.9-0.5-4-1.9-7.5c-6.4-16.5-32.8-13.9-37.6,4.2c-4.4,16.5,10.4,29.9,26.4,25.9
		c4.2-1,9.6-4.3,11.1-7.3c-0.5-0.7-0.9-0.9-1.7-1.5l-5.1-3.8c-0.9,0.4-1.7,1.6-2.4,2.2c-7.5,6.4-18.8,2.1-18.8-6.3h30V44.3z
		 M214.9,42.7c0.2-5.4,4.3-9.2,10-9.3c6.1-0.1,9.9,3.3,10.1,9.2L214.9,42.7z"/>
	<path class="st0" d="M196,26.9c0,0.1-0.1,0.1-0.1,0.2l-0.2,0.3c-0.1,0.2-0.2,0.3-0.2,0.5c-2.1,4.8-9.3,25.5-10.5,26.7l-10.5-27.7
		h-10.7c0.3,1.9,3.2,7.9,4,10.1c1.6,4.1,11.6,28.9,12.2,29.5h10.3c0.8-0.9,7-17.2,7.9-19.6c0.8-2,7.5-18.5,7.7-20H196z"/>
	<path class="st0" d="M80.8,57c-15.4,18.4-50.1,20-68.6,7C2.6,57.3,3.1,52.2,0,57.2v2.9c1.4,1.8,1.8,4.1,6.3,8
		c2.5,2.2,5.3,4.1,8.4,5.8c11.4,6.2,20.1,5.8,21.9,6.7h11.1c0.7-0.3,3.9-0.5,5-0.7c1.7-0.3,3.1-0.6,4.8-1c2.8-0.7,6.2-1.8,8.6-2.9
		c6.3-2.8,16.8-9.5,18.8-15.8c0.5-1.5,0.3-3.6-0.6-4.5C82.7,54.1,81.4,56.4,80.8,57z"/>
	<path class="st0" d="M19.3,59.4c14.1,6.4,33.2,6.2,47.1-0.3c19-8.9,14.9-20.4,11-16.8c-1.3,1.3-2.2,2.4-3.6,3.6
		C58.7,58.3,35.6,60,18.9,51.1c-3.3-1.7-6.2-3.7-8.3-5.8c-0.5-0.4-3.3-3.3-3.7-3.5C4.6,41,4,44,4.4,45.9C5.6,51.8,14,57,19.3,59.4z"
		/>
	<path class="st0" d="M21.4,43.4c12.9,5.8,28.5,6,41.4,0.3c5.3-2.2,12.3-5.9,13.6-11.4c0.4-1.6,0.2-4.5-1.9-4
		c-0.8,0.2-2.7,2.2-3.5,2.8c-2.2,1.8-4.9,3.6-7.6,4.9c-15.1,7.6-35.1,6.2-48.7-4.4l-3.3-2.9C7.9,26.1,4.2,35.7,21.4,43.4z"/>
	<path class="st0" d="M24.3,28.5c11.3,4.6,25.8,4.7,37.1-0.2c4.1-1.8,11-6.2,11.6-10.4c0.3-1.8-0.4-3.6-2.4-3.3
		c-0.9,0.2-1.2,0.8-1.6,1.3c-0.4,0.5-0.9,0.9-1.3,1.3c-1.8,1.8-4.1,3.2-6.7,4.3c-12.3,5.4-34.8,4.8-44-4.7c-0.8-0.8-1.7-2.4-3.2-2.2
		c-1.7,0.2-2.1,2-1.6,3.8C13.3,22.5,19.9,26.8,24.3,28.5z"/>
	<polygon class="st0" points="149.6,66.5 159.6,66.5 159.6,26.9 149.5,27 	"/>
	<path class="st0" d="M18.9,7.8c4.9,6.3,15.4,8.8,23.6,8.8c6.4,0,12.7-1.4,17.5-3.8c3.4-1.7,11.2-7.4,6.5-12.7h-1.3
		c-2.9,3.4-4.3,5.1-9,7.2c-7.8,3.5-19.6,3.3-27.3-0.1C24.6,5.3,22.8,3.3,20,0h-1.4c-0.6,1.1-1.5,2.1-1.3,4.1
		C17.4,5.6,18.1,6.7,18.9,7.8z"/>
</g>
</svg>
